<svg version="1.1" id="Layer_1" xmlns="http://www.w3.org/2000/svg" xmlns:xlink="http://www.w3.org/1999/xlink" x="0px" y="0px"
	 width="100%" viewBox="0 0 3913 1417" enable-background="new 0 0 3913 1417" xml:space="preserve">
<path fill="#FFFFFF" opacity="1.000000" stroke="none" 
	d="
M2678.000000,1420.000000 
	C1785.333374,1420.000000 893.666687,1420.000000 2.000000,1420.000000 
	C2.000000,947.333313 2.000000,474.666656 2.000000,2.000000 
	C1306.666626,2.000000 2611.333252,2.000000 3916.000000,2.000000 
	C3916.000000,474.666656 3916.000000,947.333313 3916.000000,1420.000000 
	C3503.666748,1420.000000 3091.333252,1420.000000 2678.000000,1420.000000 
M2221.072021,757.638184 
	C2220.963379,759.703674 2220.854736,761.769104 2220.377441,765.608154 
	C2220.250244,771.009094 2220.122803,776.410034 2218.383789,782.153931 
	C2212.823730,782.621521 2207.266602,783.372253 2201.702393,783.430115 
	C2199.152344,783.456543 2196.603271,781.659241 2194.024902,781.574890 
	C2192.463623,781.523926 2189.970703,782.846069 2189.492676,784.140747 
	C2188.976074,785.538757 2189.792969,788.231079 2190.980225,789.262512 
	C2192.632324,790.697693 2195.134277,791.223633 2197.335693,791.944763 
	C2204.888184,794.418823 2212.468262,793.354919 2220.266113,793.808411 
	C2220.239746,801.855957 2220.213379,809.903564 2218.370361,818.516602 
	C2210.670166,820.996399 2203.251709,819.406250 2195.937988,816.859741 
	C2192.996582,815.835510 2190.056396,816.085205 2189.604736,819.258057 
	C2189.330322,821.183960 2191.171387,823.868103 2192.797363,825.460754 
	C2194.067627,826.705017 2196.445312,827.205383 2198.373779,827.320557 
	C2204.971680,827.714783 2211.588379,827.793396 2218.637939,829.676147 
	C2217.299072,840.449707 2215.960449,851.223206 2212.858154,862.353394 
	C2207.446533,861.294617 2202.063965,860.020081 2196.608887,859.281799 
	C2194.386963,858.981018 2191.000488,859.014954 2189.904053,860.346191 
	C2187.448242,863.327820 2189.855957,865.862427 2192.596191,867.448242 
	C2194.572021,868.591736 2196.745605,869.635803 2198.960205,870.077087 
	C2204.423584,871.165710 2209.961426,871.881775 2215.093994,874.457703 
	C2216.743652,886.254272 2218.393555,898.050842 2218.255371,910.127930 
	C2211.191406,912.016418 2204.595459,910.324585 2198.178955,907.441345 
	C2196.684570,906.769958 2195.343506,905.365356 2193.838623,905.211853 
	C2192.110596,905.035706 2189.068848,905.452454 2188.750000,906.364258 
	C2188.125000,908.151733 2188.342529,910.922180 2189.414062,912.432251 
	C2190.630615,914.146301 2193.117676,915.011841 2195.133057,916.096375 
	C2203.019043,920.339905 2211.589111,920.191101 2220.304932,921.745789 
	C2220.283936,929.834473 2220.262939,937.923218 2218.431152,946.381592 
	C2215.145020,946.459595 2211.744141,947.109680 2208.600586,946.478210 
	C2204.149902,945.584290 2199.945801,943.508850 2195.516357,942.434204 
	C2193.912354,942.045105 2190.857178,942.590759 2190.415283,943.580688 
	C2189.656494,945.280701 2189.614258,948.553955 2190.729492,949.576660 
	C2193.066650,951.720093 2196.211182,953.690308 2199.275635,954.188965 
	C2206.089844,955.298035 2213.058594,955.457886 2220.238770,957.633972 
	C2220.409912,959.821655 2220.581055,962.009399 2220.359619,965.496887 
	C2221.720703,967.212036 2215.839111,973.353210 2225.639160,971.367065 
	C2239.730957,971.594055 2253.822754,971.820984 2267.768555,973.475708 
	C2265.193604,978.395020 2262.956543,983.536316 2259.921387,988.153198 
	C2257.998291,991.078491 2253.527832,993.406860 2257.590088,997.062378 
	C2261.151855,1000.267639 2264.498047,997.127197 2266.862549,994.402649 
	C2269.438477,991.434326 2271.904785,988.171204 2273.528809,984.628601 
	C2275.437500,980.464966 2276.388916,975.862610 2279.652344,971.422852 
	C2289.163086,971.466736 2298.673828,971.510620 2308.311035,973.091553 
	C2307.074951,980.194641 2303.428223,986.020569 2298.606934,991.186768 
	C2296.315674,993.641785 2295.014404,996.296936 2297.904785,998.907166 
	C2300.831543,1001.549988 2303.519287,999.710266 2305.645996,997.428223 
	C2312.344482,990.240967 2316.833252,981.924622 2319.898926,971.604797 
	C2326.972168,971.584900 2334.045410,971.565002 2341.089355,973.184021 
	C2338.640137,978.552612 2336.417236,984.041382 2333.654053,989.243164 
	C2332.068604,992.227722 2331.008789,994.705994 2334.322998,996.954407 
	C2337.250244,998.939941 2339.314209,997.248047 2341.064941,995.007263 
	C2346.280518,988.331970 2349.947266,981.013916 2351.985107,971.745178 
	C2359.354736,971.662109 2366.724609,971.579102 2374.675537,973.125610 
	C2373.410889,977.794434 2372.650146,982.686218 2370.715332,987.058228 
	C2369.286621,990.286316 2367.187012,993.172180 2371.088135,995.466858 
	C2374.934570,997.729126 2377.148926,994.515686 2379.002197,991.763611 
	C2383.008789,985.814087 2384.379150,979.128906 2385.679199,971.628540 
	C2390.141357,971.046570 2394.603271,970.464539 2399.703369,968.111694 
	C2399.673340,960.953735 2399.643311,953.795715 2401.438721,946.379272 
	C2412.429199,948.513794 2422.972656,944.995117 2433.664307,943.604858 
	C2434.878174,943.446960 2436.927002,940.257874 2436.540283,939.317444 
	C2435.846924,937.633484 2433.553955,935.432129 2432.001465,935.486633 
	C2426.099609,935.693726 2420.168457,936.412048 2414.359619,937.522217 
	C2408.798340,938.584961 2403.982910,937.762207 2399.682129,932.165955 
	C2399.791748,923.451904 2399.901367,914.737915 2401.767334,905.915833 
	C2403.418701,905.906860 2405.078369,906.002502 2406.719971,905.871338 
	C2415.706787,905.153076 2424.205811,902.791016 2432.171143,898.470947 
	C2435.430664,896.703186 2437.906006,894.557861 2435.841064,890.715881 
	C2433.936035,887.171082 2430.993896,888.312683 2428.211914,889.939636 
	C2426.794678,890.768555 2425.284180,891.448975 2423.781250,892.118958 
	C2416.110840,895.538635 2408.178467,897.373352 2399.684814,894.122131 
	C2399.775391,883.961670 2399.865967,873.801208 2401.638184,863.478577 
	C2406.217773,862.953735 2411.087646,863.231018 2415.304932,861.704773 
	C2420.800293,859.715820 2425.962646,856.571167 2430.847900,853.297058 
	C2432.053955,852.488770 2432.568359,848.637207 2431.692383,847.323547 
	C2430.888428,846.117554 2427.787109,846.261414 2425.686035,846.195496 
	C2424.895752,846.170654 2424.046387,847.195007 2423.267090,847.796692 
	C2416.349609,853.137085 2408.526367,854.962219 2399.738770,852.003235 
	C2399.814941,841.322388 2399.891357,830.641602 2401.582520,819.926636 
	C2410.907959,821.085571 2420.147461,821.111694 2429.160889,817.921082 
	C2432.239502,816.831238 2434.952393,815.131714 2433.701416,811.482544 
	C2432.503418,807.987793 2429.633057,807.877258 2426.308594,809.079590 
	C2417.635010,812.216248 2408.795898,812.747437 2399.704590,808.053650 
	C2399.682617,801.621399 2399.660645,795.189148 2401.406250,788.692139 
	C2411.686279,792.828430 2421.988281,793.343689 2432.361572,788.985718 
	C2435.421875,787.700073 2438.082031,785.683655 2436.175049,782.380676 
	C2435.300781,780.865662 2431.442139,779.648010 2429.684326,780.302734 
	C2419.264648,784.183716 2409.502686,782.652893 2399.704346,776.162476 
	C2399.646484,770.817566 2399.588623,765.472656 2400.002197,758.978516 
	C2399.289307,758.667664 2398.576660,758.356812 2396.443848,757.280823 
	C2392.515137,757.725281 2391.290527,755.791443 2391.109619,752.053955 
	C2390.702637,743.640930 2388.662109,735.593079 2384.187256,728.345825 
	C2382.162842,725.067139 2380.288330,719.889465 2375.440918,722.399048 
	C2370.250977,725.085938 2373.933594,729.149475 2375.805176,732.545349 
	C2376.765625,734.288025 2377.787598,736.036255 2378.441406,737.901245 
	C2380.595459,744.048828 2383.520264,750.161621 2380.519287,757.301086 
	C2371.655518,757.301086 2362.999268,757.462952 2354.357666,757.182068 
	C2352.316162,757.115723 2350.322754,755.560486 2348.984375,753.098511 
	C2349.408447,742.815674 2347.048828,733.386597 2340.713623,725.063721 
	C2338.645264,722.346619 2336.071777,720.543579 2333.152344,722.598328 
	C2330.189941,724.683533 2331.028076,727.671997 2333.145264,730.412659 
	C2338.929932,737.901611 2340.572266,746.554932 2338.253906,756.762695 
	C2325.796143,756.762695 2313.338623,756.762695 2300.422852,756.762695 
	C2299.549316,753.465454 2299.066162,750.162415 2297.805420,747.189087 
	C2295.110840,740.834045 2292.319336,734.472229 2288.865723,728.520569 
	C2288.005859,727.038696 2284.039307,726.013977 2282.270508,726.716614 
	C2279.534668,727.803223 2279.423096,730.784546 2281.197998,733.451111 
	C2282.294189,735.098083 2283.530273,736.758850 2284.145508,738.599731 
	C2286.212646,744.784973 2288.029541,751.053955 2288.095947,757.333496 
	C2278.555908,757.333496 2269.015869,757.333496 2259.639893,757.333496 
	C2257.862793,752.971252 2256.881104,749.400146 2255.050781,746.336121 
	C2252.182129,741.534607 2248.987793,736.865784 2245.376221,732.612000 
	C2244.416016,731.480896 2240.638672,731.170044 2239.583740,732.101379 
	C2238.354736,733.186279 2238.075195,736.198181 2238.534912,738.094666 
	C2238.954590,739.824829 2241.159424,741.038513 2242.143555,742.732056 
	C2244.563721,746.897400 2246.734375,751.207703 2249.724854,756.806641 
	C2239.399170,757.210388 2230.907715,757.542419 2221.072021,757.638184 
M542.305542,658.230408 
	C519.269043,658.102478 505.030609,672.191772 505.610748,694.540894 
	C506.007477,709.824585 516.811157,723.146118 531.246033,726.150757 
	C547.041260,729.438538 561.617920,722.391296 568.594055,708.046326 
	C569.891113,705.379211 571.021179,702.630920 571.911255,700.632080 
	C712.302490,700.632080 852.106262,700.632080 994.017029,700.632080 
	C977.938354,730.766663 962.816345,759.108215 947.621765,787.585876 
	C880.692688,788.403137 814.152344,789.215698 747.870178,790.025024 
	C739.187012,768.494202 725.659668,759.197144 708.057068,762.186096 
	C692.499695,764.827759 680.531067,779.194336 680.299133,795.505615 
	C680.070740,811.567383 690.778625,826.084106 705.846497,829.595215 
	C713.471375,831.372009 721.114807,830.873291 728.276123,827.346619 
	C738.793274,822.167297 744.398071,813.021423 747.436768,801.932312 
	C765.634827,801.499451 783.236633,800.887634 800.842957,800.699097 
	C848.812317,800.185547 896.783508,799.673889 944.754333,799.633850 
	C952.049255,799.627747 956.030457,797.496582 959.395142,790.992859 
	C973.307617,764.099976 988.104736,737.661865 1001.825562,710.674683 
	C1005.694580,703.064697 1010.046509,700.430542 1018.566833,700.460571 
	C1109.876099,700.782715 1201.187256,700.570984 1292.497070,700.790588 
	C1302.392456,700.814392 1309.317871,697.240967 1315.225220,689.494202 
	C1334.211670,664.595459 1353.732178,640.103333 1372.672119,615.169922 
	C1376.686523,609.885132 1380.738647,607.577759 1387.510254,607.718506 
	C1427.461548,608.548584 1467.421387,609.045471 1507.380493,609.408203 
	C1550.691406,609.801392 1594.004883,609.938232 1637.317383,610.127563 
	C1639.498413,610.137085 1641.681885,609.583313 1644.167847,609.251282 
	C1643.931641,605.438904 1643.735474,602.271545 1643.477173,598.102783 
	C1627.171631,598.102783 1611.557617,598.225098 1595.945923,598.080261 
	C1545.987305,597.616638 1496.029663,597.041992 1446.071533,596.532837 
	C1379.459351,595.853943 1312.847290,595.155579 1246.234497,594.548889 
	C1217.915894,594.291016 1189.595459,594.221313 1161.275757,594.111267 
	C1147.040527,594.055908 1132.805176,594.101562 1119.164551,594.101562 
	C1109.410767,572.025146 1095.865601,563.731812 1077.780518,567.816650 
	C1062.301270,571.312988 1051.390015,586.012756 1051.975098,602.581848 
	C1052.568970,619.399475 1064.805298,633.159912 1081.301758,635.561279 
	C1098.510742,638.066406 1112.318237,627.476013 1119.738281,605.245361 
	C1200.055786,606.041931 1280.735596,606.842102 1363.179199,607.659729 
	C1360.288940,611.712646 1358.694946,614.121460 1356.929077,616.396973 
	C1340.182251,637.977234 1323.230469,659.401978 1306.755615,681.187622 
	C1302.346558,687.017883 1297.831055,689.525391 1290.215210,689.503601 
	C1111.615479,688.993225 933.015015,688.804626 754.414612,688.518616 
	C710.764648,688.448730 667.115051,688.229431 623.465149,688.109619 
	C606.506714,688.063110 589.548035,688.102051 572.594482,688.102051 
	C568.455444,672.209412 559.781372,661.765015 542.305542,658.230408 
M2965.979248,795.048340 
	C2950.386963,775.770264 2929.567871,768.296814 2905.426270,767.393372 
	C2864.799316,765.873108 2834.454590,787.616760 2823.859131,826.654724 
	C2817.187012,851.237000 2817.127686,876.116028 2822.665527,900.784302 
	C2831.390381,939.648865 2858.847168,963.017395 2896.962646,963.906616 
	C2909.221924,964.192566 2918.797852,968.278564 2926.977051,976.964783 
	C2937.694824,988.346863 2948.155273,1000.017578 2959.476807,1010.774475 
	C2976.282959,1026.742676 2994.891846,1040.071045 3018.205078,1045.075806 
	C3045.891113,1051.019287 3068.927734,1038.216064 3078.027588,1011.387878 
	C3080.245850,1004.847595 3081.291992,997.838135 3082.217529,990.955688 
	C3082.850342,986.251648 3082.338379,981.393738 3082.338379,974.732666 
	C3067.124512,989.214600 3050.190430,992.954041 3032.024414,989.735291 
	C3021.997070,987.958557 3012.168701,984.326538 3002.668701,980.494507 
	C2991.584229,976.023376 2981.079834,970.133362 2970.089355,965.403870 
	C2961.703125,961.795044 2952.951904,959.034851 2943.834473,955.704163 
	C2945.339844,954.541077 2946.303955,953.655273 2947.395264,952.973755 
	C2965.592773,941.610657 2976.398193,924.895447 2981.811523,904.556885 
	C2987.547607,883.004150 2987.728516,861.126709 2984.325439,839.177490 
	C2981.891113,823.477722 2976.569336,808.925049 2965.979248,795.048340 
M936.370056,549.358948 
	C951.357483,535.151489 966.658936,521.254578 981.170898,506.576965 
	C986.632324,501.053192 992.169434,499.339233 999.604797,499.346100 
	C1170.239014,499.503387 1340.873413,499.467377 1511.507812,499.467377 
	C1515.418945,499.467377 1519.330078,499.467346 1523.633057,499.467346 
	C1523.633057,495.153961 1523.633057,491.969910 1523.633057,487.921509 
	C1424.708252,487.921509 1326.188354,487.921509 1227.728027,487.921509 
	C1226.193115,485.266693 1224.989990,483.311981 1223.906494,481.292999 
	C1208.800171,453.142395 1193.443970,425.120148 1178.817627,396.722107 
	C1175.477905,390.238068 1171.435303,388.444672 1164.752563,388.415009 
	C1111.779297,388.179810 1058.806396,387.754486 1005.834900,387.247620 
	C992.920105,387.124054 980.010254,386.482544 967.351929,386.087097 
	C959.412781,364.396851 945.108154,354.713989 926.808655,358.189636 
	C911.899841,361.021301 900.296387,375.340637 899.969299,391.311096 
	C899.626831,408.030945 911.716980,423.566559 927.395813,425.874023 
	C941.717957,427.981873 958.649414,424.184601 967.297363,398.189911 
	C1033.601562,398.964081 1100.152588,399.741150 1167.273560,400.524872 
	C1182.461426,428.996826 1197.713013,457.588135 1213.813354,487.770538 
	C1208.317261,487.770538 1204.772461,487.770508 1201.227661,487.770508 
	C1131.574097,487.770691 1061.920654,487.795715 992.267212,487.720520 
	C987.110168,487.714966 982.842102,488.439972 978.772522,492.386047 
	C953.664612,516.732239 928.214722,540.725342 903.018433,564.981262 
	C898.737183,569.102661 894.447876,571.477905 888.149536,571.427917 
	C852.158630,571.142212 816.164246,571.303040 780.171143,571.259216 
	C777.609375,571.256104 775.048096,570.828918 772.813965,570.628357 
	C764.990234,549.999207 751.258179,540.164978 734.763794,542.868530 
	C718.315491,545.564575 706.472229,558.807373 705.949585,575.087524 
	C705.379883,592.837585 715.588440,606.742981 731.875427,610.619873 
	C739.691772,612.480408 747.108521,611.413025 754.203796,607.943665 
	C764.501648,602.908447 769.754517,593.851807 772.789978,582.684326 
	C776.864746,582.684326 780.471191,582.684326 784.077637,582.684326 
	C820.070801,582.684265 856.065063,582.543640 892.056213,582.814514 
	C898.496033,582.863037 903.467529,581.318787 908.019531,576.701172 
	C916.902710,567.689941 926.184753,559.071899 936.370056,549.358948 
M2107.311279,773.516174 
	C2101.383789,772.788269 2095.461182,771.484619 2089.527588,771.432007 
	C2063.535645,771.201233 2037.540161,771.313660 2011.546021,771.376526 
	C2009.835693,771.380676 2008.126953,772.009766 2006.417480,772.348083 
	C2012.867554,774.915283 2018.137817,778.053284 2019.690430,784.964417 
	C2020.337769,787.845947 2020.286621,790.919373 2020.288696,793.905701 
	C2020.321655,841.894958 2020.315552,889.884277 2020.301758,937.873535 
	C2020.301147,940.202576 2020.458374,942.593323 2020.007568,944.848450 
	C2018.910522,950.336182 2016.471313,954.871826 2010.431396,956.379211 
	C2009.054321,956.722839 2007.758179,957.390137 2005.415039,958.300964 
	C2016.718140,961.234802 2075.789307,960.768127 2081.340332,958.084412 
	C2078.264404,956.378662 2074.816162,955.056335 2072.107910,952.832581 
	C2067.517090,949.062744 2067.667236,943.503662 2067.670654,938.099243 
	C2067.700439,890.443237 2067.679688,842.787170 2067.711182,795.131165 
	C2067.712646,792.557190 2068.046875,789.983521 2068.244629,787.146484 
	C2077.772705,786.403259 2083.898682,790.100647 2087.802979,798.293335 
	C2093.041016,809.284607 2093.207520,820.887756 2092.104980,832.525635 
	C2090.790527,846.400024 2089.814453,860.765564 2072.925293,866.500427 
	C2079.287598,874.194946 2080.710449,882.708740 2082.009766,891.302856 
	C2084.461914,907.524170 2088.872314,923.121277 2096.433105,937.803467 
	C2103.825439,952.158081 2115.179199,959.920166 2131.464355,960.032532 
	C2143.793701,960.117615 2156.123535,960.118896 2168.453125,960.111145 
	C2169.556396,960.110474 2170.659668,959.768372 2172.892334,959.396973 
	C2156.260498,950.141479 2158.957275,950.632202 2151.731934,937.263062 
	C2147.951660,930.268738 2144.787598,922.850525 2142.172607,915.335815 
	C2136.550049,899.178467 2129.768799,883.927124 2113.235596,873.463379 
	C2130.309814,867.907043 2136.887939,855.420654 2139.331299,840.777832 
	C2140.899414,831.379395 2141.042480,821.509460 2140.207764,811.992676 
	C2138.497803,792.493652 2128.214355,779.278625 2107.311279,773.516174 
M2606.795898,953.451050 
	C2606.535156,948.798218 2606.053467,944.145630 2606.048096,939.492493 
	C2605.993408,890.828430 2606.001221,842.164307 2606.024170,793.500183 
	C2606.030273,780.404907 2608.097656,777.837036 2621.081055,774.127319 
	C2621.438965,774.025085 2621.556152,773.080627 2621.986328,772.046021 
	C2620.648926,771.799316 2619.430908,771.373413 2618.215088,771.380005 
	C2593.254883,771.514160 2568.294922,771.695923 2543.335205,771.900330 
	C2543.094971,771.902344 2542.775879,772.299622 2542.645996,772.582397 
	C2542.546143,772.799988 2542.686035,773.127747 2542.719238,773.406433 
	C2556.477539,777.569885 2558.871094,780.667786 2558.917969,795.267639 
	C2558.996338,819.599426 2558.963867,843.931763 2558.900146,868.263611 
	C2558.893799,870.613892 2558.339111,872.962708 2557.859619,876.714233 
	C2540.613525,857.242981 2524.597168,839.003357 2508.404297,820.922119 
	C2492.331055,802.974854 2476.709473,784.600952 2458.907959,765.525269 
	C2459.683594,778.471680 2460.806396,788.942749 2460.852783,799.418579 
	C2461.053467,844.748657 2460.944824,890.080139 2460.925537,935.411072 
	C2460.924561,938.071411 2460.949463,940.763733 2460.574463,943.385864 
	C2459.409668,951.539917 2456.325195,954.642700 2448.044678,956.593445 
	C2446.763184,956.895264 2445.586670,957.642029 2443.029785,958.771240 
	C2459.120361,961.539185 2518.661865,960.671509 2523.685059,957.922607 
	C2511.204346,954.181458 2508.399902,951.233765 2507.738037,941.062195 
	C2507.629883,939.401978 2507.683838,937.730347 2507.683838,936.064026 
	C2507.681152,912.065308 2507.681885,888.066528 2507.681885,864.067810 
	C2507.681885,861.572876 2507.681885,859.078003 2507.681885,856.583069 
	C2515.863525,863.189270 2522.211426,870.270813 2528.553711,877.357483 
	C2535.217285,884.803345 2541.878906,892.250610 2548.534424,899.703552 
	C2554.969727,906.910156 2561.402588,914.119202 2567.824951,921.337402 
	C2574.467529,928.803040 2580.985107,936.383423 2587.762939,943.723816 
	C2594.063721,950.547668 2599.534668,958.265564 2608.373291,965.198669 
	C2607.770752,960.401917 2607.441162,957.777405 2606.795898,953.451050 
M1144.221436,797.881592 
	C1144.500488,783.619568 1144.818970,769.358093 1145.041260,755.095215 
	C1145.143799,748.518372 1145.058716,741.938599 1145.058716,734.931274 
	C1137.018066,736.582275 1130.012451,738.590881 1122.875488,739.330688 
	C1115.289551,740.117126 1107.578979,739.783203 1099.922729,739.794800 
	C1073.941162,739.834045 1047.959595,739.793030 1021.978088,739.832031 
	C1018.871216,739.836731 1015.764709,740.145386 1012.370300,740.328674 
	C1013.036133,741.782349 1013.158813,742.672668 1013.548462,742.811096 
	C1027.051270,747.605530 1029.912476,751.627502 1029.982300,766.137085 
	C1030.006348,771.133423 1029.986328,776.130005 1029.986328,781.126465 
	C1029.986328,832.090271 1030.006104,883.054138 1029.973389,934.017944 
	C1029.964233,948.268311 1026.552979,952.929382 1013.486389,957.194946 
	C1013.103882,957.319824 1012.972839,958.215027 1012.400452,959.450806 
	C1058.382690,959.450806 1104.043335,959.450806 1150.353149,959.450806 
	C1151.867310,947.324036 1153.647583,935.162781 1154.836304,922.943970 
	C1155.972778,911.260437 1159.172363,899.654907 1157.290894,887.773499 
	C1155.536621,891.220459 1155.004150,894.919739 1153.554199,898.215210 
	C1149.687866,907.002319 1146.162598,916.072693 1141.128418,924.177490 
	C1135.409790,933.384338 1127.136353,940.395386 1116.067017,942.670349 
	C1103.983276,945.153870 1091.824829,943.398071 1079.555176,943.780884 
	C1079.555176,915.179810 1079.555176,887.994873 1079.555176,860.018555 
	C1088.944824,860.018555 1097.871460,859.728394 1106.767944,860.120789 
	C1112.679199,860.381592 1117.992798,863.299866 1121.033447,868.257080 
	C1124.264404,873.524536 1126.407471,879.509094 1128.609863,885.337585 
	C1129.776123,888.424194 1130.059814,891.844421 1130.741943,895.114014 
	C1131.070435,895.028687 1131.398804,894.943420 1131.727295,894.858093 
	C1131.727295,866.195679 1131.727295,837.533325 1131.727295,808.870972 
	C1129.580688,813.080322 1129.051025,817.548706 1127.884155,821.844116 
	C1124.891724,832.859558 1118.846680,841.636475 1106.802979,843.132141 
	C1098.035645,844.220886 1089.024414,843.344910 1079.059204,843.344910 
	C1079.080200,814.114136 1079.003418,785.423096 1079.116089,756.149170 
	C1090.204712,756.149170 1099.825439,756.050781 1109.443481,756.171143 
	C1125.851440,756.376343 1136.274414,764.615417 1140.071289,780.709900 
	C1141.431152,786.474609 1141.903198,792.448853 1144.221436,797.881592 
M3278.055908,952.874268 
	C3274.727051,954.802917 3271.398193,956.731628 3266.204834,959.740479 
	C3308.432617,959.740479 3348.270508,959.740479 3388.918701,959.740479 
	C3391.052979,937.874451 3393.154053,916.346436 3395.255127,894.818420 
	C3394.564453,894.679688 3393.873535,894.540955 3393.182861,894.402222 
	C3392.144531,898.015076 3391.069824,901.617920 3390.075439,905.242737 
	C3387.218262,915.658386 3382.711670,925.217041 3375.462646,933.335693 
	C3369.984375,939.471008 3363.473877,944.315552 3355.133789,944.985229 
	C3346.933105,945.643677 3338.638184,945.128845 3329.442871,945.128845 
	C3328.788086,921.349060 3329.083252,898.281494 3329.173340,874.812256 
	C3339.858398,874.963562 3349.486328,872.647705 3357.819824,878.313782 
	C3367.933105,885.190002 3369.348145,896.566223 3371.040527,909.468994 
	C3372.271484,906.727234 3372.955078,905.916748 3372.950928,905.109924 
	C3372.819092,879.488098 3372.622803,853.866699 3372.400635,828.245483 
	C3372.398682,828.054932 3371.928467,827.827393 3371.641602,827.693176 
	C3371.406006,827.583069 3371.117920,827.586304 3370.853027,827.539185 
	C3367.750977,854.549866 3356.312256,864.178833 3329.782715,858.257202 
	C3329.782715,834.417664 3329.782715,810.613403 3329.782715,786.157532 
	C3337.762939,786.157532 3345.050049,786.088928 3352.335693,786.173340 
	C3363.864502,786.306824 3372.272705,791.638672 3376.302246,802.393188 
	C3378.479004,808.202271 3379.018066,814.623962 3380.311035,820.766052 
	C3380.652344,822.388794 3381.050293,823.999634 3381.422363,825.615967 
	C3381.959717,825.531128 3382.497314,825.446228 3383.034912,825.361389 
	C3383.034912,806.131348 3383.034912,786.901245 3383.034912,766.888611 
	C3369.099609,771.572754 3355.469727,771.430969 3341.816650,771.361084 
	C3319.152588,771.245117 3296.487549,771.303772 3273.822998,771.376709 
	C3271.898926,771.382935 3269.977051,772.049500 3268.054443,772.409302 
	C3279.543457,775.970947 3282.447754,783.717834 3282.401367,794.222961 
	C3282.190674,841.884521 3282.400879,889.548035 3282.168701,937.209473 
	C3282.145508,941.999634 3280.160400,946.780212 3278.055908,952.874268 
M3093.572510,955.615967 
	C3106.986572,962.395569 3121.357178,964.361633 3136.179688,964.162537 
	C3163.602295,963.794128 3181.785400,950.306091 3190.477051,924.055664 
	C3194.726074,911.222229 3195.547363,897.954651 3195.628418,884.644165 
	C3195.815430,854.002808 3195.896729,823.357300 3195.565674,792.718384 
	C3195.461426,783.096436 3196.613770,775.075317 3209.736572,772.768799 
	C3196.783203,770.579529 3170.552246,770.895813 3163.111084,773.199036 
	C3172.250732,774.916321 3176.052979,780.087524 3176.025146,788.662598 
	C3175.903809,825.966003 3176.178223,863.272034 3175.840332,900.572876 
	C3175.731201,912.614502 3173.218018,924.404785 3166.629150,934.859314 
	C3155.469971,952.565308 3131.890625,953.470093 3119.860596,936.306274 
	C3116.316650,931.250488 3113.515381,925.187866 3112.177490,919.184631 
	C3110.093750,909.831970 3108.643799,900.147583 3108.519775,890.583069 
	C3108.092041,857.614624 3108.305908,824.637085 3108.380859,791.663269 
	C3108.408203,779.575806 3110.520996,776.748474 3121.563232,772.789246 
	C3113.404785,770.670227 3056.189941,770.757812 3048.858398,772.900513 
	C3060.551270,777.003723 3061.953369,778.921631 3061.967529,791.673462 
	C3062.003906,823.981323 3061.965576,856.289185 3061.994873,888.597046 
	C3061.999023,893.255981 3061.892578,897.947937 3062.377441,902.567932 
	C3064.663818,924.356201 3071.869873,943.411926 3093.572510,955.615967 
M1467.295044,859.773193 
	C1461.873657,859.175537 1463.796387,854.905640 1463.773926,852.061584 
	C1463.617432,832.065430 1463.671387,812.067505 1463.728882,792.070312 
	C1463.734253,790.217041 1464.232910,788.365234 1464.554443,786.157288 
	C1472.125000,786.157288 1479.092529,786.051331 1486.055908,786.179993 
	C1499.331299,786.425293 1508.005005,792.688049 1511.979126,805.486267 
	C1513.540283,810.514038 1513.838745,815.925598 1514.873535,821.130371 
	C1515.177734,822.659485 1516.036011,824.078369 1517.507080,827.655273 
	C1517.507080,805.948486 1517.507080,786.728699 1517.507080,768.922852 
	C1503.502441,769.742554 1489.961670,770.993408 1476.403564,771.225098 
	C1454.079712,771.606689 1431.744385,771.304443 1409.414307,771.364868 
	C1407.076538,771.371216 1404.740234,771.877686 1402.403198,772.152161 
	C1415.061768,775.899353 1417.022095,785.011108 1416.988647,795.869873 
	C1416.844604,842.529907 1416.939087,889.190674 1416.898926,935.851135 
	C1416.896362,938.835266 1416.913940,941.927246 1416.184570,944.780579 
	C1414.643921,950.808105 1412.028320,956.083252 1404.677612,956.783081 
	C1403.838989,956.862915 1403.110596,958.100708 1401.568359,959.487427 
	C1442.991333,959.487427 1483.090332,959.487427 1523.375854,959.487427 
	C1525.545654,937.537292 1527.651733,916.233276 1529.757690,894.929321 
	C1527.289917,896.436707 1526.393066,898.321350 1525.898560,900.306213 
	C1522.885620,912.403320 1518.372437,923.747559 1509.944824,933.217407 
	C1503.974121,939.926453 1496.842163,944.710388 1487.691772,945.218994 
	C1480.083008,945.641846 1472.432129,945.305603 1464.247314,945.305603 
	C1464.247314,921.553650 1464.247314,898.389587 1464.247314,874.656738 
	C1469.771606,874.656738 1474.745850,874.616333 1479.719360,874.665161 
	C1490.295166,874.769043 1497.326172,880.278687 1501.147339,889.712891 
	C1502.862915,893.948853 1503.237305,898.719788 1504.324829,903.222656 
	C1504.689941,904.733887 1505.378662,906.166870 1506.585327,909.444458 
	C1508.695679,893.181335 1508.065918,834.291565 1505.436279,825.757263 
	C1504.776367,829.866028 1504.360596,832.253845 1504.012817,834.651550 
	C1501.506958,851.927979 1492.576904,859.712463 1475.136719,859.799194 
	C1473.136963,859.809143 1471.137329,859.798401 1467.295044,859.773193 
M1669.019653,787.541382 
	C1690.863525,776.351501 1710.795776,782.609863 1721.512939,804.572815 
	C1724.985596,811.689636 1727.014526,819.508789 1729.746094,826.991272 
	C1730.323975,828.574524 1731.085938,830.090515 1731.763184,831.637512 
	C1732.308350,831.521790 1732.853394,831.406128 1733.398560,831.290405 
	C1734.354492,813.669617 1735.310425,796.048828 1736.246460,778.793640 
	C1715.868164,768.321533 1695.196289,766.640625 1673.982178,767.837341 
	C1637.979736,769.868225 1610.154907,791.704895 1599.997681,826.190979 
	C1593.677490,847.649719 1593.015991,869.545044 1596.663574,891.412781 
	C1601.017334,917.513611 1612.750488,939.451599 1636.741699,952.693237 
	C1658.660156,964.790833 1682.256104,966.973633 1706.435181,961.370911 
	C1717.017090,958.918945 1725.956787,953.081787 1732.931274,944.498169 
	C1738.423096,937.739014 1741.701660,930.545349 1739.241211,921.526123 
	C1738.288208,918.032715 1738.331787,914.273010 1737.852539,910.643677 
	C1736.596436,901.130249 1735.302368,891.621765 1734.023438,882.111328 
	C1730.111694,892.255493 1728.527100,902.430176 1725.701050,912.247559 
	C1723.429688,920.138000 1720.332764,927.964905 1716.408447,935.169861 
	C1707.848633,950.885498 1676.887939,956.488464 1662.795166,938.382751 
	C1657.585815,931.689941 1652.929565,923.862183 1650.536255,915.804871 
	C1640.645020,882.506104 1640.657593,848.841370 1650.043579,815.376892 
	C1653.043213,804.682129 1658.239624,794.981384 1669.019653,787.541382 
M1942.020020,779.413696 
	C1942.020020,775.313843 1942.020020,771.213989 1942.020020,768.346558 
	C1930.130737,769.140320 1919.557129,770.645508 1909.023315,770.404297 
	C1872.950806,769.578064 1836.749878,773.375610 1801.034668,767.699219 
	C1801.034668,786.523376 1801.034668,805.433411 1801.034668,824.343445 
	C1803.492310,818.058472 1804.294800,811.564453 1806.045776,805.337036 
	C1808.995117,794.846313 1815.856201,787.848877 1826.916748,786.483337 
	C1833.390991,785.684082 1840.044556,786.337708 1847.159668,786.337708 
	C1847.351807,789.272766 1847.625732,791.516357 1847.626953,793.760071 
	C1847.651733,841.704895 1847.645996,889.649780 1847.645264,937.594604 
	C1847.645264,938.926392 1847.779175,940.277405 1847.604614,941.586670 
	C1846.619019,948.977112 1844.066650,955.118286 1835.625854,956.691772 
	C1834.759033,956.853455 1834.102661,958.144226 1832.912354,959.354736 
	C1853.184692,961.534729 1902.808960,960.646179 1909.375122,957.661804 
	C1896.554932,955.468689 1894.204102,947.097473 1894.256226,936.386108 
	C1894.483154,889.774170 1894.353638,843.160522 1894.353638,796.547485 
	C1894.353638,793.332275 1894.353638,790.117065 1894.353638,786.166077 
	C1901.121582,786.166077 1906.722534,786.088989 1912.320557,786.186646 
	C1918.569458,786.295532 1924.041748,788.624023 1928.578613,792.825806 
	C1934.458130,798.270935 1937.026367,805.351807 1938.177246,813.137695 
	C1938.759521,817.077942 1937.929932,821.434753 1942.020020,824.776672 
	C1942.020020,810.290588 1942.020020,795.804443 1942.020020,779.413696 
M1280.344604,801.324951 
	C1280.177734,789.170715 1279.136108,776.562134 1296.822144,773.257629 
	C1286.645386,770.552551 1226.623047,770.778137 1218.588257,773.575684 
	C1230.016846,776.097717 1234.038452,783.136353 1234.021484,793.299622 
	C1233.941162,841.610046 1234.047119,889.920715 1233.942749,938.231018 
	C1233.918091,949.634949 1231.093628,953.273254 1220.551147,957.447021 
	C1220.286499,957.551758 1220.370239,958.536316 1220.220459,959.628662 
	C1260.049927,959.628662 1299.806274,959.628662 1339.498047,959.628662 
	C1343.782837,936.634399 1346.627930,903.006409 1344.683350,893.338745 
	C1343.454712,897.788086 1342.645020,900.861145 1341.756836,903.911316 
	C1338.752930,914.226013 1334.618774,924.004089 1327.528076,932.241150 
	C1322.457642,938.131348 1316.703003,943.714966 1308.679932,944.412354 
	C1299.574951,945.203674 1290.348389,944.595093 1281.416748,944.595093 
	C1280.943237,943.397217 1280.492188,942.787964 1280.491211,942.177979 
	C1280.419800,895.867676 1280.383667,849.557312 1280.344604,801.324951 
M2743.060303,837.000488 
	C2743.060547,822.684326 2743.136230,808.367554 2743.035645,794.052124 
	C2742.965820,784.142517 2745.724609,776.307495 2756.625244,773.813538 
	C2756.788574,773.776184 2756.734863,772.790833 2756.781982,772.251404 
	C2742.275391,770.192749 2688.204102,770.893127 2680.449463,773.944641 
	C2694.645264,775.607239 2696.362061,784.676819 2696.347412,795.090515 
	C2696.280518,842.367004 2696.322754,889.643738 2696.302490,936.920349 
	C2696.301514,939.245728 2696.330566,941.616272 2695.916504,943.887634 
	C2694.779541,950.128662 2692.213379,955.266663 2685.131348,956.560608 
	C2684.075195,956.753601 2683.114746,957.472839 2681.374268,958.296997 
	C2690.641357,960.886841 2750.133301,960.771057 2758.831055,957.949890 
	C2745.778320,955.742859 2742.710693,947.448547 2743.053711,936.882935 
	C2743.107666,935.220032 2743.060303,933.553833 2743.060303,931.889160 
	C2743.060059,900.926270 2743.060059,869.963440 2743.060303,837.000488 
z"/>
<path fill="#0C0BB9" opacity="1.000000" stroke="none" 
	d="
M543.131836,658.339722 
	C559.781372,661.765015 568.455444,672.209412 572.594482,688.102051 
	C589.548035,688.102051 606.506714,688.063110 623.465149,688.109619 
	C667.115051,688.229431 710.764648,688.448730 754.414612,688.518616 
	C933.015015,688.804626 1111.615479,688.993225 1290.215210,689.503601 
	C1297.831055,689.525391 1302.346558,687.017883 1306.755615,681.187622 
	C1323.230469,659.401978 1340.182251,637.977234 1356.929077,616.396973 
	C1358.694946,614.121460 1360.288940,611.712646 1363.179199,607.659729 
	C1280.735596,606.842102 1200.055786,606.041931 1119.738281,605.245361 
	C1112.318237,627.476013 1098.510742,638.066406 1081.301758,635.561279 
	C1064.805298,633.159912 1052.568970,619.399475 1051.975098,602.581848 
	C1051.390015,586.012756 1062.301270,571.312988 1077.780518,567.816650 
	C1095.865601,563.731812 1109.410767,572.025146 1119.164551,594.101562 
	C1132.805176,594.101562 1147.040527,594.055908 1161.275757,594.111267 
	C1189.595459,594.221313 1217.915894,594.291016 1246.234497,594.548889 
	C1312.847290,595.155579 1379.459351,595.853943 1446.071533,596.532837 
	C1496.029663,597.041992 1545.987305,597.616638 1595.945923,598.080261 
	C1611.557617,598.225098 1627.171631,598.102783 1643.477173,598.102783 
	C1643.735474,602.271545 1643.931641,605.438904 1644.167847,609.251282 
	C1641.681885,609.583313 1639.498413,610.137085 1637.317383,610.127563 
	C1594.004883,609.938232 1550.691406,609.801392 1507.380493,609.408203 
	C1467.421387,609.045471 1427.461548,608.548584 1387.510254,607.718506 
	C1380.738647,607.577759 1376.686523,609.885132 1372.672119,615.169922 
	C1353.732178,640.103333 1334.211670,664.595459 1315.225220,689.494202 
	C1309.317871,697.240967 1302.392456,700.814392 1292.497070,700.790588 
	C1201.187256,700.570984 1109.876099,700.782715 1018.566833,700.460571 
	C1010.046509,700.430542 1005.694580,703.064697 1001.825562,710.674683 
	C988.104736,737.661865 973.307617,764.099976 959.395142,790.992859 
	C956.030457,797.496582 952.049255,799.627747 944.754333,799.633850 
	C896.783508,799.673889 848.812317,800.185547 800.842957,800.699097 
	C783.236633,800.887634 765.634827,801.499451 747.436768,801.932312 
	C744.398071,813.021423 738.793274,822.167297 728.276123,827.346619 
	C721.114807,830.873291 713.471375,831.372009 705.846497,829.595215 
	C690.778625,826.084106 680.070740,811.567383 680.299133,795.505615 
	C680.531067,779.194336 692.499695,764.827759 708.057068,762.186096 
	C725.659668,759.197144 739.187012,768.494202 747.870178,790.025024 
	C814.152344,789.215698 880.692688,788.403137 947.621765,787.585876 
	C962.816345,759.108215 977.938354,730.766663 994.017029,700.632080 
	C852.106262,700.632080 712.302490,700.632080 571.911255,700.632080 
	C571.021179,702.630920 569.891113,705.379211 568.594055,708.046326 
	C561.617920,722.391296 547.041260,729.438538 531.246033,726.150757 
	C516.811157,723.146118 506.007477,709.824585 505.610748,694.540894 
	C505.030609,672.191772 519.269043,658.102478 543.131836,658.339722 
z"/>
<path fill="#0807B8" opacity="1.000000" stroke="none" 
	d="
M2966.408691,795.613892 
	C2976.569336,808.925049 2981.891113,823.477722 2984.325439,839.177490 
	C2987.728516,861.126709 2987.547607,883.004150 2981.811523,904.556885 
	C2976.398193,924.895447 2965.592773,941.610657 2947.395264,952.973755 
	C2946.303955,953.655273 2945.339844,954.541077 2943.834473,955.704163 
	C2952.951904,959.034851 2961.703125,961.795044 2970.089355,965.403870 
	C2981.079834,970.133362 2991.584229,976.023376 3002.668701,980.494507 
	C3012.168701,984.326538 3021.997070,987.958557 3032.024414,989.735291 
	C3050.190430,992.954041 3067.124512,989.214600 3082.338379,974.732666 
	C3082.338379,981.393738 3082.850342,986.251648 3082.217529,990.955688 
	C3081.291992,997.838135 3080.245850,1004.847595 3078.027588,1011.387878 
	C3068.927734,1038.216064 3045.891113,1051.019287 3018.205078,1045.075806 
	C2994.891846,1040.071045 2976.282959,1026.742676 2959.476807,1010.774475 
	C2948.155273,1000.017578 2937.694824,988.346863 2926.977051,976.964783 
	C2918.797852,968.278564 2909.221924,964.192566 2896.962646,963.906616 
	C2858.847168,963.017395 2831.390381,939.648865 2822.665527,900.784302 
	C2817.127686,876.116028 2817.187012,851.237000 2823.859131,826.654724 
	C2834.454590,787.616760 2864.799316,765.873108 2905.426270,767.393372 
	C2929.567871,768.296814 2950.386963,775.770264 2966.408691,795.613892 
M2874.057617,920.524902 
	C2877.300781,927.027344 2879.648682,934.209717 2883.967285,939.895386 
	C2893.974854,953.072327 2911.319092,952.966797 2921.547119,939.921631 
	C2925.160889,935.312561 2928.480469,929.806763 2929.809570,924.206116 
	C2932.939453,911.016602 2935.769531,897.608704 2936.942871,884.134399 
	C2938.997070,860.547729 2938.299805,836.873657 2931.980469,813.869568 
	C2929.913574,806.345276 2926.556885,798.687195 2921.952393,792.446167 
	C2911.214355,777.891541 2892.674316,778.475952 2882.613037,793.420776 
	C2878.790527,799.098816 2875.969971,805.747925 2874.034424,812.347839 
	C2866.325439,838.631531 2867.011230,865.594788 2869.060791,892.505676 
	C2869.737305,901.385742 2872.129395,910.135132 2874.057617,920.524902 
z"/>
<path fill="#0E0FBA" opacity="1.000000" stroke="none" 
	d="
M935.835815,549.825012 
	C926.184753,559.071899 916.902710,567.689941 908.019531,576.701172 
	C903.467529,581.318787 898.496033,582.863037 892.056213,582.814514 
	C856.065063,582.543640 820.070801,582.684265 784.077637,582.684326 
	C780.471191,582.684326 776.864746,582.684326 772.789978,582.684326 
	C769.754517,593.851807 764.501648,602.908447 754.203796,607.943665 
	C747.108521,611.413025 739.691772,612.480408 731.875427,610.619873 
	C715.588440,606.742981 705.379883,592.837585 705.949585,575.087524 
	C706.472229,558.807373 718.315491,545.564575 734.763794,542.868530 
	C751.258179,540.164978 764.990234,549.999207 772.813965,570.628357 
	C775.048096,570.828918 777.609375,571.256104 780.171143,571.259216 
	C816.164246,571.303040 852.158630,571.142212 888.149536,571.427917 
	C894.447876,571.477905 898.737183,569.102661 903.018433,564.981262 
	C928.214722,540.725342 953.664612,516.732239 978.772522,492.386047 
	C982.842102,488.439972 987.110168,487.714966 992.267212,487.720520 
	C1061.920654,487.795715 1131.574097,487.770691 1201.227661,487.770508 
	C1204.772461,487.770508 1208.317261,487.770538 1213.813354,487.770538 
	C1197.713013,457.588135 1182.461426,428.996826 1167.273560,400.524872 
	C1100.152588,399.741150 1033.601562,398.964081 967.297363,398.189911 
	C958.649414,424.184601 941.717957,427.981873 927.395813,425.874023 
	C911.716980,423.566559 899.626831,408.030945 899.969299,391.311096 
	C900.296387,375.340637 911.899841,361.021301 926.808655,358.189636 
	C945.108154,354.713989 959.412781,364.396851 967.351929,386.087097 
	C980.010254,386.482544 992.920105,387.124054 1005.834900,387.247620 
	C1058.806396,387.754486 1111.779297,388.179810 1164.752563,388.415009 
	C1171.435303,388.444672 1175.477905,390.238068 1178.817627,396.722107 
	C1193.443970,425.120148 1208.800171,453.142395 1223.906494,481.292999 
	C1224.989990,483.311981 1226.193115,485.266693 1227.728027,487.921509 
	C1326.188354,487.921509 1424.708252,487.921509 1523.633057,487.921509 
	C1523.633057,491.969910 1523.633057,495.153961 1523.633057,499.467346 
	C1519.330078,499.467346 1515.418945,499.467377 1511.507812,499.467377 
	C1340.873413,499.467377 1170.239014,499.503387 999.604797,499.346100 
	C992.169434,499.339233 986.632324,501.053192 981.170898,506.576965 
	C966.658936,521.254578 951.357483,535.151489 935.835815,549.825012 
z"/>
<path fill="#0808B8" opacity="1.000000" stroke="none" 
	d="
M2108.102051,773.691406 
	C2128.214355,779.278625 2138.497803,792.493652 2140.207764,811.992676 
	C2141.042480,821.509460 2140.899414,831.379395 2139.331299,840.777832 
	C2136.887939,855.420654 2130.309814,867.907043 2113.235596,873.463379 
	C2129.768799,883.927124 2136.550049,899.178467 2142.172607,915.335815 
	C2144.787598,922.850525 2147.951660,930.268738 2151.731934,937.263062 
	C2158.957275,950.632202 2156.260498,950.141479 2172.892334,959.396973 
	C2170.659668,959.768372 2169.556396,960.110474 2168.453125,960.111145 
	C2156.123535,960.118896 2143.793701,960.117615 2131.464355,960.032532 
	C2115.179199,959.920166 2103.825439,952.158081 2096.433105,937.803467 
	C2088.872314,923.121277 2084.461914,907.524170 2082.009766,891.302856 
	C2080.710449,882.708740 2079.287598,874.194946 2072.925293,866.500427 
	C2089.814453,860.765564 2090.790527,846.400024 2092.104980,832.525635 
	C2093.207520,820.887756 2093.041016,809.284607 2087.802979,798.293335 
	C2083.898682,790.100647 2077.772705,786.403259 2068.244629,787.146484 
	C2068.046875,789.983521 2067.712646,792.557190 2067.711182,795.131165 
	C2067.679688,842.787170 2067.700439,890.443237 2067.670654,938.099243 
	C2067.667236,943.503662 2067.517090,949.062744 2072.107910,952.832581 
	C2074.816162,955.056335 2078.264404,956.378662 2081.340332,958.084412 
	C2075.789307,960.768127 2016.718140,961.234802 2005.415039,958.300964 
	C2007.758179,957.390137 2009.054321,956.722839 2010.431396,956.379211 
	C2016.471313,954.871826 2018.910522,950.336182 2020.007568,944.848450 
	C2020.458374,942.593323 2020.301147,940.202576 2020.301758,937.873535 
	C2020.315552,889.884277 2020.321655,841.894958 2020.288696,793.905701 
	C2020.286621,790.919373 2020.337769,787.845947 2019.690430,784.964417 
	C2018.137817,778.053284 2012.867554,774.915283 2006.417480,772.348083 
	C2008.126953,772.009766 2009.835693,771.380676 2011.546021,771.376526 
	C2037.540161,771.313660 2063.535645,771.201233 2089.527588,771.432007 
	C2095.461182,771.484619 2101.383789,772.788269 2108.102051,773.691406 
z"/>
<path fill="#0707B8" opacity="1.000000" stroke="none" 
	d="
M2606.953613,954.302002 
	C2607.441162,957.777405 2607.770752,960.401917 2608.373291,965.198669 
	C2599.534668,958.265564 2594.063721,950.547668 2587.762939,943.723816 
	C2580.985107,936.383423 2574.467529,928.803040 2567.824951,921.337402 
	C2561.402588,914.119202 2554.969727,906.910156 2548.534424,899.703552 
	C2541.878906,892.250610 2535.217285,884.803345 2528.553711,877.357483 
	C2522.211426,870.270813 2515.863525,863.189270 2507.681885,856.583069 
	C2507.681885,859.078003 2507.681885,861.572876 2507.681885,864.067810 
	C2507.681885,888.066528 2507.681152,912.065308 2507.683838,936.064026 
	C2507.683838,937.730347 2507.629883,939.401978 2507.738037,941.062195 
	C2508.399902,951.233765 2511.204346,954.181458 2523.685059,957.922607 
	C2518.661865,960.671509 2459.120361,961.539185 2443.029785,958.771240 
	C2445.586670,957.642029 2446.763184,956.895264 2448.044678,956.593445 
	C2456.325195,954.642700 2459.409668,951.539917 2460.574463,943.385864 
	C2460.949463,940.763733 2460.924561,938.071411 2460.925537,935.411072 
	C2460.944824,890.080139 2461.053467,844.748657 2460.852783,799.418579 
	C2460.806396,788.942749 2459.683594,778.471680 2458.907959,765.525269 
	C2476.709473,784.600952 2492.331055,802.974854 2508.404297,820.922119 
	C2524.597168,839.003357 2540.613525,857.242981 2557.859619,876.714233 
	C2558.339111,872.962708 2558.893799,870.613892 2558.900146,868.263611 
	C2558.963867,843.931763 2558.996338,819.599426 2558.917969,795.267639 
	C2558.871094,780.667786 2556.477539,777.569885 2542.719238,773.406433 
	C2542.686035,773.127747 2542.546143,772.799988 2542.645996,772.582397 
	C2542.775879,772.299622 2543.094971,771.902344 2543.335205,771.900330 
	C2568.294922,771.695923 2593.254883,771.514160 2618.215088,771.380005 
	C2619.430908,771.373413 2620.648926,771.799316 2621.986328,772.046021 
	C2621.556152,773.080627 2621.438965,774.025085 2621.081055,774.127319 
	C2608.097656,777.837036 2606.030273,780.404907 2606.024170,793.500183 
	C2606.001221,842.164307 2605.993408,890.828430 2606.048096,939.492493 
	C2606.053467,944.145630 2606.535156,948.798218 2606.953613,954.302002 
z"/>
<path fill="#0707B8" opacity="1.000000" stroke="none" 
	d="
M1143.500977,798.104492 
	C1141.903198,792.448853 1141.431152,786.474609 1140.071289,780.709900 
	C1136.274414,764.615417 1125.851440,756.376343 1109.443481,756.171143 
	C1099.825439,756.050781 1090.204712,756.149170 1079.116089,756.149170 
	C1079.003418,785.423096 1079.080200,814.114136 1079.059204,843.344910 
	C1089.024414,843.344910 1098.035645,844.220886 1106.802979,843.132141 
	C1118.846680,841.636475 1124.891724,832.859558 1127.884155,821.844116 
	C1129.051025,817.548706 1129.580688,813.080322 1131.727295,808.870972 
	C1131.727295,837.533325 1131.727295,866.195679 1131.727295,894.858093 
	C1131.398804,894.943420 1131.070435,895.028687 1130.741943,895.114014 
	C1130.059814,891.844421 1129.776123,888.424194 1128.609863,885.337585 
	C1126.407471,879.509094 1124.264404,873.524536 1121.033447,868.257080 
	C1117.992798,863.299866 1112.679199,860.381592 1106.767944,860.120789 
	C1097.871460,859.728394 1088.944824,860.018555 1079.555176,860.018555 
	C1079.555176,887.994873 1079.555176,915.179810 1079.555176,943.780884 
	C1091.824829,943.398071 1103.983276,945.153870 1116.067017,942.670349 
	C1127.136353,940.395386 1135.409790,933.384338 1141.128418,924.177490 
	C1146.162598,916.072693 1149.687866,907.002319 1153.554199,898.215210 
	C1155.004150,894.919739 1155.536621,891.220459 1157.290894,887.773499 
	C1159.172363,899.654907 1155.972778,911.260437 1154.836304,922.943970 
	C1153.647583,935.162781 1151.867310,947.324036 1150.353149,959.450806 
	C1104.043335,959.450806 1058.382690,959.450806 1012.400452,959.450806 
	C1012.972839,958.215027 1013.103882,957.319824 1013.486389,957.194946 
	C1026.552979,952.929382 1029.964233,948.268311 1029.973389,934.017944 
	C1030.006104,883.054138 1029.986328,832.090271 1029.986328,781.126465 
	C1029.986328,776.130005 1030.006348,771.133423 1029.982300,766.137085 
	C1029.912476,751.627502 1027.051270,747.605530 1013.548462,742.811096 
	C1013.158813,742.672668 1013.036133,741.782349 1012.370300,740.328674 
	C1015.764709,740.145386 1018.871216,739.836731 1021.978088,739.832031 
	C1047.959595,739.793030 1073.941162,739.834045 1099.922729,739.794800 
	C1107.578979,739.783203 1115.289551,740.117126 1122.875488,739.330688 
	C1130.012451,738.590881 1137.018066,736.582275 1145.058716,734.931274 
	C1145.058716,741.938599 1145.143799,748.518372 1145.041260,755.095215 
	C1144.818970,769.358093 1144.500488,783.619568 1143.500977,798.104492 
z"/>
<path fill="#0908B8" opacity="1.000000" stroke="none" 
	d="
M3278.570801,952.219727 
	C3280.160400,946.780212 3282.145508,941.999634 3282.168701,937.209473 
	C3282.400879,889.548035 3282.190674,841.884521 3282.401367,794.222961 
	C3282.447754,783.717834 3279.543457,775.970947 3268.054443,772.409302 
	C3269.977051,772.049500 3271.898926,771.382935 3273.822998,771.376709 
	C3296.487549,771.303772 3319.152588,771.245117 3341.816650,771.361084 
	C3355.469727,771.430969 3369.099609,771.572754 3383.034912,766.888611 
	C3383.034912,786.901245 3383.034912,806.131348 3383.034912,825.361389 
	C3382.497314,825.446228 3381.959717,825.531128 3381.422363,825.615967 
	C3381.050293,823.999634 3380.652344,822.388794 3380.311035,820.766052 
	C3379.018066,814.623962 3378.479004,808.202271 3376.302246,802.393188 
	C3372.272705,791.638672 3363.864502,786.306824 3352.335693,786.173340 
	C3345.050049,786.088928 3337.762939,786.157532 3329.782715,786.157532 
	C3329.782715,810.613403 3329.782715,834.417664 3329.782715,858.257202 
	C3356.312256,864.178833 3367.750977,854.549866 3370.853027,827.539185 
	C3371.117920,827.586304 3371.406006,827.583069 3371.641602,827.693176 
	C3371.928467,827.827393 3372.398682,828.054932 3372.400635,828.245483 
	C3372.622803,853.866699 3372.819092,879.488098 3372.950928,905.109924 
	C3372.955078,905.916748 3372.271484,906.727234 3371.040527,909.468994 
	C3369.348145,896.566223 3367.933105,885.190002 3357.819824,878.313782 
	C3349.486328,872.647705 3339.858398,874.963562 3329.173340,874.812256 
	C3329.083252,898.281494 3328.788086,921.349060 3329.442871,945.128845 
	C3338.638184,945.128845 3346.933105,945.643677 3355.133789,944.985229 
	C3363.473877,944.315552 3369.984375,939.471008 3375.462646,933.335693 
	C3382.711670,925.217041 3387.218262,915.658386 3390.075439,905.242737 
	C3391.069824,901.617920 3392.144531,898.015076 3393.182861,894.402222 
	C3393.873535,894.540955 3394.564453,894.679688 3395.255127,894.818420 
	C3393.154053,916.346436 3391.052979,937.874451 3388.918701,959.740479 
	C3348.270508,959.740479 3308.432617,959.740479 3266.204834,959.740479 
	C3271.398193,956.731628 3274.727051,954.802917 3278.570801,952.219727 
z"/>
<path fill="#0808B8" opacity="1.000000" stroke="none" 
	d="
M3092.935547,955.235474 
	C3071.869873,943.411926 3064.663818,924.356201 3062.377441,902.567932 
	C3061.892578,897.947937 3061.999023,893.255981 3061.994873,888.597046 
	C3061.965576,856.289185 3062.003906,823.981323 3061.967529,791.673462 
	C3061.953369,778.921631 3060.551270,777.003723 3048.858398,772.900513 
	C3056.189941,770.757812 3113.404785,770.670227 3121.563232,772.789246 
	C3110.520996,776.748474 3108.408203,779.575806 3108.380859,791.663269 
	C3108.305908,824.637085 3108.092041,857.614624 3108.519775,890.583069 
	C3108.643799,900.147583 3110.093750,909.831970 3112.177490,919.184631 
	C3113.515381,925.187866 3116.316650,931.250488 3119.860596,936.306274 
	C3131.890625,953.470093 3155.469971,952.565308 3166.629150,934.859314 
	C3173.218018,924.404785 3175.731201,912.614502 3175.840332,900.572876 
	C3176.178223,863.272034 3175.903809,825.966003 3176.025146,788.662598 
	C3176.052979,780.087524 3172.250732,774.916321 3163.111084,773.199036 
	C3170.552246,770.895813 3196.783203,770.579529 3209.736572,772.768799 
	C3196.613770,775.075317 3195.461426,783.096436 3195.565674,792.718384 
	C3195.896729,823.357300 3195.815430,854.002808 3195.628418,884.644165 
	C3195.547363,897.954651 3194.726074,911.222229 3190.477051,924.055664 
	C3181.785400,950.306091 3163.602295,963.794128 3136.179688,964.162537 
	C3121.357178,964.361633 3106.986572,962.395569 3092.935547,955.235474 
z"/>
<path fill="#0909B8" opacity="1.000000" stroke="none" 
	d="
M1468.216309,859.785217 
	C1471.137329,859.798401 1473.136963,859.809143 1475.136719,859.799194 
	C1492.576904,859.712463 1501.506958,851.927979 1504.012817,834.651550 
	C1504.360596,832.253845 1504.776367,829.866028 1505.436279,825.757263 
	C1508.065918,834.291565 1508.695679,893.181335 1506.585327,909.444458 
	C1505.378662,906.166870 1504.689941,904.733887 1504.324829,903.222656 
	C1503.237305,898.719788 1502.862915,893.948853 1501.147339,889.712891 
	C1497.326172,880.278687 1490.295166,874.769043 1479.719360,874.665161 
	C1474.745850,874.616333 1469.771606,874.656738 1464.247314,874.656738 
	C1464.247314,898.389587 1464.247314,921.553650 1464.247314,945.305603 
	C1472.432129,945.305603 1480.083008,945.641846 1487.691772,945.218994 
	C1496.842163,944.710388 1503.974121,939.926453 1509.944824,933.217407 
	C1518.372437,923.747559 1522.885620,912.403320 1525.898560,900.306213 
	C1526.393066,898.321350 1527.289917,896.436707 1529.757690,894.929321 
	C1527.651733,916.233276 1525.545654,937.537292 1523.375854,959.487427 
	C1483.090332,959.487427 1442.991333,959.487427 1401.568359,959.487427 
	C1403.110596,958.100708 1403.838989,956.862915 1404.677612,956.783081 
	C1412.028320,956.083252 1414.643921,950.808105 1416.184570,944.780579 
	C1416.913940,941.927246 1416.896362,938.835266 1416.898926,935.851135 
	C1416.939087,889.190674 1416.844604,842.529907 1416.988647,795.869873 
	C1417.022095,785.011108 1415.061768,775.899353 1402.403198,772.152161 
	C1404.740234,771.877686 1407.076538,771.371216 1409.414307,771.364868 
	C1431.744385,771.304443 1454.079712,771.606689 1476.403564,771.225098 
	C1489.961670,770.993408 1503.502441,769.742554 1517.507080,768.922852 
	C1517.507080,786.728699 1517.507080,805.948486 1517.507080,827.655273 
	C1516.036011,824.078369 1515.177734,822.659485 1514.873535,821.130371 
	C1513.838745,815.925598 1513.540283,810.514038 1511.979126,805.486267 
	C1508.005005,792.688049 1499.331299,786.425293 1486.055908,786.179993 
	C1479.092529,786.051331 1472.125000,786.157288 1464.554443,786.157288 
	C1464.232910,788.365234 1463.734253,790.217041 1463.728882,792.070312 
	C1463.671387,812.067505 1463.617432,832.065430 1463.773926,852.061584 
	C1463.796387,854.905640 1461.873657,859.175537 1468.216309,859.785217 
z"/>
<path fill="#0909B8" opacity="1.000000" stroke="none" 
	d="
M1668.368408,787.920532 
	C1658.239624,794.981384 1653.043213,804.682129 1650.043579,815.376892 
	C1640.657593,848.841370 1640.645020,882.506104 1650.536255,915.804871 
	C1652.929565,923.862183 1657.585815,931.689941 1662.795166,938.382751 
	C1676.887939,956.488464 1707.848633,950.885498 1716.408447,935.169861 
	C1720.332764,927.964905 1723.429688,920.138000 1725.701050,912.247559 
	C1728.527100,902.430176 1730.111694,892.255493 1734.023438,882.111328 
	C1735.302368,891.621765 1736.596436,901.130249 1737.852539,910.643677 
	C1738.331787,914.273010 1738.288208,918.032715 1739.241211,921.526123 
	C1741.701660,930.545349 1738.423096,937.739014 1732.931274,944.498169 
	C1725.956787,953.081787 1717.017090,958.918945 1706.435181,961.370911 
	C1682.256104,966.973633 1658.660156,964.790833 1636.741699,952.693237 
	C1612.750488,939.451599 1601.017334,917.513611 1596.663574,891.412781 
	C1593.015991,869.545044 1593.677490,847.649719 1599.997681,826.190979 
	C1610.154907,791.704895 1637.979736,769.868225 1673.982178,767.837341 
	C1695.196289,766.640625 1715.868164,768.321533 1736.246460,778.793640 
	C1735.310425,796.048828 1734.354492,813.669617 1733.398560,831.290405 
	C1732.853394,831.406128 1732.308350,831.521790 1731.763184,831.637512 
	C1731.085938,830.090515 1730.323975,828.574524 1729.746094,826.991272 
	C1727.014526,819.508789 1724.985596,811.689636 1721.512939,804.572815 
	C1710.795776,782.609863 1690.863525,776.351501 1668.368408,787.920532 
z"/>
<path fill="#0907B8" opacity="1.000000" stroke="none" 
	d="
M1942.020020,780.366028 
	C1942.020020,795.804443 1942.020020,810.290588 1942.020020,824.776672 
	C1937.929932,821.434753 1938.759521,817.077942 1938.177246,813.137695 
	C1937.026367,805.351807 1934.458130,798.270935 1928.578613,792.825806 
	C1924.041748,788.624023 1918.569458,786.295532 1912.320557,786.186646 
	C1906.722534,786.088989 1901.121582,786.166077 1894.353638,786.166077 
	C1894.353638,790.117065 1894.353638,793.332275 1894.353638,796.547485 
	C1894.353638,843.160522 1894.483154,889.774170 1894.256226,936.386108 
	C1894.204102,947.097473 1896.554932,955.468689 1909.375122,957.661804 
	C1902.808960,960.646179 1853.184692,961.534729 1832.912354,959.354736 
	C1834.102661,958.144226 1834.759033,956.853455 1835.625854,956.691772 
	C1844.066650,955.118286 1846.619019,948.977112 1847.604614,941.586670 
	C1847.779175,940.277405 1847.645264,938.926392 1847.645264,937.594604 
	C1847.645996,889.649780 1847.651733,841.704895 1847.626953,793.760071 
	C1847.625732,791.516357 1847.351807,789.272766 1847.159668,786.337708 
	C1840.044556,786.337708 1833.390991,785.684082 1826.916748,786.483337 
	C1815.856201,787.848877 1808.995117,794.846313 1806.045776,805.337036 
	C1804.294800,811.564453 1803.492310,818.058472 1801.034668,824.343445 
	C1801.034668,805.433411 1801.034668,786.523376 1801.034668,767.699219 
	C1836.749878,773.375610 1872.950806,769.578064 1909.023315,770.404297 
	C1919.557129,770.645508 1930.130737,769.140320 1942.020020,768.346558 
	C1942.020020,771.213989 1942.020020,775.313843 1942.020020,780.366028 
z"/>
<path fill="#0706B8" opacity="1.000000" stroke="none" 
	d="
M1280.344727,802.285950 
	C1280.383667,849.557312 1280.419800,895.867676 1280.491211,942.177979 
	C1280.492188,942.787964 1280.943237,943.397217 1281.416748,944.595093 
	C1290.348389,944.595093 1299.574951,945.203674 1308.679932,944.412354 
	C1316.703003,943.714966 1322.457642,938.131348 1327.528076,932.241150 
	C1334.618774,924.004089 1338.752930,914.226013 1341.756836,903.911316 
	C1342.645020,900.861145 1343.454712,897.788086 1344.683350,893.338745 
	C1346.627930,903.006409 1343.782837,936.634399 1339.498047,959.628662 
	C1299.806274,959.628662 1260.049927,959.628662 1220.220459,959.628662 
	C1220.370239,958.536316 1220.286499,957.551758 1220.551147,957.447021 
	C1231.093628,953.273254 1233.918091,949.634949 1233.942749,938.231018 
	C1234.047119,889.920715 1233.941162,841.610046 1234.021484,793.299622 
	C1234.038452,783.136353 1230.016846,776.097717 1218.588257,773.575684 
	C1226.623047,770.778137 1286.645386,770.552551 1296.822144,773.257629 
	C1279.136108,776.562134 1280.177734,789.170715 1280.344727,802.285950 
z"/>
<path fill="#0707B8" opacity="1.000000" stroke="none" 
	d="
M2743.060059,838.000488 
	C2743.060059,869.963440 2743.060059,900.926270 2743.060303,931.889160 
	C2743.060303,933.553833 2743.107666,935.220032 2743.053711,936.882935 
	C2742.710693,947.448547 2745.778320,955.742859 2758.831055,957.949890 
	C2750.133301,960.771057 2690.641357,960.886841 2681.374268,958.296997 
	C2683.114746,957.472839 2684.075195,956.753601 2685.131348,956.560608 
	C2692.213379,955.266663 2694.779541,950.128662 2695.916504,943.887634 
	C2696.330566,941.616272 2696.301514,939.245728 2696.302490,936.920349 
	C2696.322754,889.643738 2696.280518,842.367004 2696.347412,795.090515 
	C2696.362061,784.676819 2694.645264,775.607239 2680.449463,773.944641 
	C2688.204102,770.893127 2742.275391,770.192749 2756.781982,772.251404 
	C2756.734863,772.790833 2756.788574,773.776184 2756.625244,773.813538 
	C2745.724609,776.307495 2742.965820,784.142517 2743.035645,794.052124 
	C2743.136230,808.367554 2743.060547,822.684326 2743.060059,838.000488 
z"/>
<path fill="#0608B8" opacity="1.000000" stroke="none" 
	d="
M2399.065430,969.882446 
	C2394.603271,970.464539 2390.141357,971.046570 2384.786133,971.146973 
	C2382.001465,968.386353 2380.110107,966.107239 2376.636475,961.921326 
	C2375.335449,966.821228 2374.714844,969.158630 2374.094238,971.496094 
	C2366.724609,971.579102 2359.354736,971.662109 2350.974365,971.377686 
	C2345.848633,966.864258 2345.288330,966.898132 2341.118652,971.545105 
	C2334.045410,971.565002 2326.972168,971.584900 2318.686279,971.235474 
	C2314.054688,966.744080 2310.983398,967.309753 2308.184570,971.554504 
	C2298.673828,971.510620 2289.163086,971.466736 2278.419922,970.849426 
	C2275.557617,968.943726 2273.927734,967.611511 2272.297363,966.279236 
	C2270.836426,968.202087 2269.375488,970.125000 2267.914551,972.047913 
	C2253.822754,971.820984 2239.730957,971.594055 2224.721680,970.848877 
	C2223.804199,970.330688 2223.739990,969.603638 2224.156982,969.104248 
	C2226.182129,966.930237 2227.964111,965.388977 2229.366699,963.557251 
	C2234.318848,957.089844 2239.140869,950.522949 2244.006348,943.996948 
	C2244.000000,944.000000 2243.995605,944.013977 2244.601562,943.734253 
	C2248.142578,939.634277 2251.077393,935.814148 2254.006104,931.996948 
	C2254.000000,932.000000 2253.995605,932.013916 2254.609863,931.728149 
	C2259.005371,927.516724 2264.673096,924.823303 2264.004395,917.996887 
	C2264.000000,918.000000 2263.999756,918.010559 2264.706543,917.964966 
	C2270.425537,915.490356 2274.408691,912.319763 2274.005371,905.995483 
	C2274.000000,906.000000 2273.995117,906.012207 2274.681641,905.970886 
	C2276.912354,903.956421 2278.456299,901.983337 2279.989258,900.013672 
	C2279.978760,900.017090 2279.964355,900.040771 2280.904785,900.042542 
	C2300.563477,900.035645 2319.281738,900.027039 2338.294922,900.612427 
	C2341.728760,903.475037 2344.867676,905.743469 2348.003174,908.005981 
	C2348.000000,908.000000 2347.989990,907.989685 2347.972168,908.722778 
	C2348.785645,915.373352 2352.199463,918.831726 2358.002930,920.005859 
	C2358.000000,920.000000 2357.990234,919.990051 2357.972656,920.723022 
	C2358.778076,927.378967 2362.213379,930.814636 2368.001221,932.004883 
	C2368.000000,932.000000 2367.991943,931.993347 2367.972656,932.716675 
	C2368.665039,939.740906 2373.560791,942.696716 2378.002441,946.006714 
	C2378.000000,946.000000 2377.988525,945.993103 2378.051758,946.672424 
	C2381.411377,950.905273 2384.707764,954.458801 2388.001953,958.006165 
	C2388.000000,958.000000 2387.989258,957.994263 2388.052246,958.669006 
	C2391.363525,962.683960 2394.611572,966.024231 2398.154785,969.508301 
	C2398.450195,969.652100 2399.065430,969.882446 2399.065430,969.882446 
z"/>
<path fill="#0606B7" opacity="1.000000" stroke="none" 
	d="
M2214.621582,861.996704 
	C2215.960449,851.223206 2217.299072,840.449707 2219.073242,828.751831 
	C2221.671631,826.211182 2223.834961,824.594849 2226.805664,822.375061 
	C2223.790527,820.359680 2221.988770,819.155396 2220.187012,817.951111 
	C2220.213379,809.903564 2220.239746,801.855957 2220.798584,792.589966 
	C2223.996582,789.911255 2227.120850,788.278320 2225.482178,784.728455 
	C2224.790771,783.230835 2221.891113,782.752625 2219.995361,781.811035 
	C2220.122803,776.410034 2220.250244,771.009094 2220.932617,764.721863 
	C2221.487549,763.835571 2222.222168,763.733337 2222.833252,763.852051 
	C2224.273682,764.003296 2225.103271,764.035828 2225.935059,764.795959 
	C2226.786377,771.383911 2230.288818,774.737122 2235.923096,776.810059 
	C2236.796631,783.383118 2240.290039,786.742432 2245.921875,788.801758 
	C2246.701904,795.744934 2251.616943,798.659607 2256.026367,802.735229 
	C2261.415527,809.952454 2266.593262,816.590942 2272.114258,822.931030 
	C2273.468750,824.486694 2275.941895,825.067993 2277.943848,826.672852 
	C2278.595215,828.169128 2279.203857,829.090027 2279.851074,830.946655 
	C2279.914551,854.601868 2279.939453,877.321289 2279.964355,900.040771 
	C2279.964355,900.040771 2279.978760,900.017090 2279.306885,900.064819 
	C2277.088379,902.079102 2275.541748,904.045654 2273.995117,906.012207 
	C2273.995117,906.012207 2274.000000,906.000000 2273.398193,906.273560 
	C2269.864014,910.368225 2266.931885,914.189392 2263.999756,918.010498 
	C2263.999756,918.010559 2264.000000,918.000000 2263.388672,918.279480 
	C2258.993164,922.484619 2253.327148,925.182068 2253.995605,932.013916 
	C2253.995605,932.013916 2254.000000,932.000000 2253.298340,932.041809 
	C2247.564697,934.499512 2243.601807,937.686218 2243.995605,944.013977 
	C2243.995605,944.013977 2244.000000,944.000000 2243.309570,944.038574 
	C2239.461670,946.763306 2236.107178,949.253662 2233.195801,952.184143 
	C2229.348633,956.056641 2225.848389,960.274048 2221.839844,964.283508 
	C2221.480225,964.223755 2220.752197,964.197083 2220.752197,964.197083 
	C2220.581055,962.009399 2220.409912,959.821655 2220.695801,956.519104 
	C2225.415039,951.830750 2224.544922,948.754883 2220.241943,946.011902 
	C2220.262939,937.923218 2220.283936,929.834473 2220.845215,920.499146 
	C2227.740967,912.660461 2227.616455,911.788269 2220.043457,909.847412 
	C2218.393555,898.050842 2216.743652,886.254272 2215.745117,872.973450 
	C2218.523438,870.794861 2220.695312,870.212585 2222.769287,869.385010 
	C2228.813721,866.973022 2229.168213,864.870667 2224.470459,858.464661 
	C2221.253662,859.618286 2217.937744,860.807495 2214.621582,861.996704 
z"/>
<path fill="#0707B7" opacity="1.000000" stroke="none" 
	d="
M2399.384277,968.997070 
	C2399.065430,969.882446 2398.450195,969.652100 2398.190918,968.836914 
	C2396.897705,962.418213 2393.641113,959.018738 2387.989258,957.994263 
	C2387.989258,957.994263 2388.000000,958.000000 2388.020264,957.273071 
	C2387.213379,950.624573 2383.797852,947.168823 2377.988525,945.993103 
	C2377.988525,945.993103 2378.000000,946.000000 2378.021240,945.282898 
	C2377.335205,938.262207 2372.442139,935.304871 2367.991943,931.993347 
	C2367.991943,931.993347 2368.000000,932.000000 2367.941162,931.325195 
	C2364.584961,927.096924 2361.287598,923.543457 2357.990234,919.989990 
	C2357.990234,919.990051 2358.000000,920.000000 2357.941406,919.326050 
	C2354.584961,915.097961 2351.287598,911.543823 2347.989990,907.989685 
	C2347.989990,907.989685 2348.000000,908.000000 2347.942383,907.331177 
	C2345.267578,903.114197 2342.650635,899.566162 2340.043945,895.079712 
	C2340.075195,872.107239 2340.096436,850.073181 2340.815674,827.956055 
	C2345.593750,826.766846 2346.157959,823.607422 2346.762451,820.004272 
	C2356.712402,814.038086 2362.455566,805.101746 2368.657227,795.750427 
	C2372.184570,791.652954 2375.122559,787.857483 2378.662109,783.754211 
	C2382.997070,779.515747 2388.593018,776.815369 2388.762207,770.019165 
	C2392.800293,766.677734 2396.165527,763.402771 2399.530762,760.127808 
	C2399.588623,765.472656 2399.646484,770.817566 2399.233398,777.359619 
	C2393.893555,782.399963 2396.597412,785.592896 2399.638672,788.756897 
	C2399.660645,795.189148 2399.682617,801.621399 2399.215820,809.314819 
	C2394.522705,814.314758 2395.457031,817.374146 2399.967529,819.960754 
	C2399.891357,830.641602 2399.814941,841.322388 2399.077148,852.964783 
	C2395.971680,854.236145 2392.377197,853.284180 2392.538574,857.162903 
	C2392.606201,858.789856 2395.022705,860.433105 2396.577393,861.841003 
	C2397.494873,862.671692 2398.816650,863.055786 2399.956543,863.640747 
	C2399.865967,873.801208 2399.775391,883.961670 2398.974121,895.091187 
	C2396.872070,897.394165 2394.497070,898.587463 2394.282471,900.089600 
	C2393.734131,903.925049 2396.378906,905.683289 2400.010742,906.023865 
	C2399.901367,914.737915 2399.791748,923.451904 2399.123047,933.433899 
	C2393.860107,939.124756 2395.871338,942.957336 2399.613281,946.637756 
	C2399.643311,953.795715 2399.673340,960.953735 2399.384277,968.997070 
z"/>
<path fill="#15128D" opacity="1.000000" stroke="none" 
	d="
M2348.307617,754.690186 
	C2350.322754,755.560486 2352.316162,757.115723 2354.357666,757.182068 
	C2362.999268,757.462952 2371.655518,757.301086 2380.519287,757.301086 
	C2383.520264,750.161621 2380.595459,744.048828 2378.441406,737.901245 
	C2377.787598,736.036255 2376.765625,734.288025 2375.805176,732.545349 
	C2373.933594,729.149475 2370.250977,725.085938 2375.440918,722.399048 
	C2380.288330,719.889465 2382.162842,725.067139 2384.187256,728.345825 
	C2388.662109,735.593079 2390.702637,743.640930 2391.109619,752.053955 
	C2391.290527,755.791443 2392.515137,757.725281 2396.688477,757.802979 
	C2396.933105,758.325195 2395.984375,758.536804 2395.191895,758.389160 
	C2391.166748,758.765015 2387.919434,759.811096 2384.704590,759.719238 
	C2372.495605,759.370056 2360.297119,758.652771 2348.055176,757.645874 
	C2348.112793,756.375793 2348.210205,755.533020 2348.307617,754.690186 
z"/>
<path fill="#110E8C" opacity="1.000000" stroke="none" 
	d="
M2400.889160,905.969849 
	C2396.378906,905.683289 2393.734131,903.925049 2394.282471,900.089600 
	C2394.497070,898.587463 2396.872070,897.394165 2398.997559,896.025330 
	C2408.178467,897.373352 2416.110840,895.538635 2423.781250,892.118958 
	C2425.284180,891.448975 2426.794678,890.768555 2428.211914,889.939636 
	C2430.993896,888.312683 2433.936035,887.171082 2435.841064,890.715881 
	C2437.906006,894.557861 2435.430664,896.703186 2432.171143,898.470947 
	C2424.205811,902.791016 2415.706787,905.153076 2406.719971,905.871338 
	C2405.078369,906.002502 2403.418701,905.906860 2400.889160,905.969849 
z"/>
<path fill="#15128D" opacity="1.000000" stroke="none" 
	d="
M2289.942139,757.290894 
	C2288.029541,751.053955 2286.212646,744.784973 2284.145508,738.599731 
	C2283.530273,736.758850 2282.294189,735.098083 2281.197998,733.451111 
	C2279.423096,730.784546 2279.534668,727.803223 2282.270508,726.716614 
	C2284.039307,726.013977 2288.005859,727.038696 2288.865723,728.520569 
	C2292.319336,734.472229 2295.110840,740.834045 2297.805420,747.189087 
	C2299.066162,750.162415 2299.549316,753.465454 2300.422852,756.762695 
	C2313.338623,756.762695 2325.796143,756.762695 2339.098145,756.854675 
	C2339.929688,757.330933 2339.916748,757.715271 2338.976807,758.082397 
	C2323.758301,758.622681 2309.468506,759.264465 2295.171875,759.628784 
	C2293.428711,759.673157 2291.647705,758.226074 2289.876709,757.418030 
	C2289.869141,757.365967 2289.942139,757.290894 2289.942139,757.290894 
z"/>
<path fill="#110E8C" opacity="1.000000" stroke="none" 
	d="
M2289.019043,757.312195 
	C2289.942139,757.290894 2289.869141,757.365967 2288.968262,757.612000 
	C2282.141602,757.905396 2276.192627,757.646851 2270.296387,758.090881 
	C2264.992920,758.490234 2259.747559,759.660522 2253.094238,760.708557 
	C2251.027100,760.115967 2247.384033,758.372009 2243.652832,758.156616 
	C2237.110107,757.778931 2230.513428,758.338135 2223.652832,758.468994 
	C2223.366211,758.433105 2222.789062,758.456848 2222.701172,758.307739 
	C2222.613525,758.158569 2222.416260,757.874451 2222.416260,757.874390 
	C2230.907715,757.542419 2239.399170,757.210388 2249.724854,756.806641 
	C2246.734375,751.207703 2244.563721,746.897400 2242.143555,742.732056 
	C2241.159424,741.038513 2238.954590,739.824829 2238.534912,738.094666 
	C2238.075195,736.198181 2238.354736,733.186279 2239.583740,732.101379 
	C2240.638672,731.170044 2244.416016,731.480896 2245.376221,732.612000 
	C2248.987793,736.865784 2252.182129,741.534607 2255.050781,746.336121 
	C2256.881104,749.400146 2257.862793,752.971252 2259.639893,757.333496 
	C2269.015869,757.333496 2278.555908,757.333496 2289.019043,757.312195 
z"/>
<path fill="#110E8C" opacity="1.000000" stroke="none" 
	d="
M2400.526123,946.508545 
	C2395.871338,942.957336 2393.860107,939.124756 2399.137695,934.364624 
	C2403.982910,937.762207 2408.798340,938.584961 2414.359619,937.522217 
	C2420.168457,936.412048 2426.099609,935.693726 2432.001465,935.486633 
	C2433.553955,935.432129 2435.846924,937.633484 2436.540283,939.317444 
	C2436.927002,940.257874 2434.878174,943.446960 2433.664307,943.604858 
	C2422.972656,944.995117 2412.429199,948.513794 2400.526123,946.508545 
z"/>
<path fill="#15128D" opacity="1.000000" stroke="none" 
	d="
M2400.522461,788.724487 
	C2396.597412,785.592896 2393.893555,782.399963 2399.323730,778.247681 
	C2409.502686,782.652893 2419.264648,784.183716 2429.684326,780.302734 
	C2431.442139,779.648010 2435.300781,780.865662 2436.175049,782.380676 
	C2438.082031,785.683655 2435.421875,787.700073 2432.361572,788.985718 
	C2421.988281,793.343689 2411.686279,792.828430 2400.522461,788.724487 
z"/>
<path fill="#0F0A8A" opacity="1.000000" stroke="none" 
	d="
M2400.797363,863.559692 
	C2398.816650,863.055786 2397.494873,862.671692 2396.577393,861.841003 
	C2395.022705,860.433105 2392.606201,858.789856 2392.538574,857.162903 
	C2392.377197,853.284180 2395.971680,854.236145 2399.176758,853.885925 
	C2408.526367,854.962219 2416.349609,853.137085 2423.267090,847.796692 
	C2424.046387,847.195007 2424.895752,846.170654 2425.686035,846.195496 
	C2427.787109,846.261414 2430.888428,846.117554 2431.692383,847.323547 
	C2432.568359,848.637207 2432.053955,852.488770 2430.847900,853.297058 
	C2425.962646,856.571167 2420.800293,859.715820 2415.304932,861.704773 
	C2411.087646,863.231018 2406.217773,862.953735 2400.797363,863.559692 
z"/>
<path fill="#110E8C" opacity="1.000000" stroke="none" 
	d="
M2339.903564,758.099670 
	C2339.916748,757.715271 2339.929688,757.330933 2339.922363,756.370483 
	C2340.572266,746.554932 2338.929932,737.901611 2333.145264,730.412659 
	C2331.028076,727.671997 2330.189941,724.683533 2333.152344,722.598328 
	C2336.071777,720.543579 2338.645264,722.346619 2340.713623,725.063721 
	C2347.048828,733.386597 2349.408447,742.815674 2348.645996,753.894348 
	C2348.210205,755.533020 2348.112793,756.375793 2347.895020,758.326111 
	C2343.415039,763.128357 2342.605957,762.991211 2339.903564,758.099670 
z"/>
<path fill="#0F0A8A" opacity="1.000000" stroke="none" 
	d="
M2400.774902,819.943726 
	C2395.457031,817.374146 2394.522705,814.314758 2399.309082,810.250366 
	C2408.795898,812.747437 2417.635010,812.216248 2426.308594,809.079590 
	C2429.633057,807.877258 2432.503418,807.987793 2433.701416,811.482544 
	C2434.952393,815.131714 2432.239502,816.831238 2429.160889,817.921082 
	C2420.147461,821.111694 2410.907959,821.085571 2400.774902,819.943726 
z"/>
<path fill="#110E8C" opacity="1.000000" stroke="none" 
	d="
M2213.739746,862.175049 
	C2217.937744,860.807495 2221.253662,859.618286 2224.470459,858.464661 
	C2229.168213,864.870667 2228.813721,866.973022 2222.769287,869.385010 
	C2220.695312,870.212585 2218.523438,870.794861 2215.932861,872.118408 
	C2209.961426,871.881775 2204.423584,871.165710 2198.960205,870.077087 
	C2196.745605,869.635803 2194.572021,868.591736 2192.596191,867.448242 
	C2189.855957,865.862427 2187.448242,863.327820 2189.904053,860.346191 
	C2191.000488,859.014954 2194.386963,858.981018 2196.608887,859.281799 
	C2202.063965,860.020081 2207.446533,861.294617 2213.739746,862.175049 
z"/>
<path fill="#110E8C" opacity="1.000000" stroke="none" 
	d="
M2219.149414,909.987671 
	C2227.616455,911.788269 2227.740967,912.660461 2220.780273,919.567139 
	C2211.589111,920.191101 2203.019043,920.339905 2195.133057,916.096375 
	C2193.117676,915.011841 2190.630615,914.146301 2189.414062,912.432251 
	C2188.342529,910.922180 2188.125000,908.151733 2188.750000,906.364258 
	C2189.068848,905.452454 2192.110596,905.035706 2193.838623,905.211853 
	C2195.343506,905.365356 2196.684570,906.769958 2198.178955,907.441345 
	C2204.595459,910.324585 2211.191406,912.016418 2219.149414,909.987671 
z"/>
<path fill="#15128D" opacity="1.000000" stroke="none" 
	d="
M2219.189453,781.982483 
	C2221.891113,782.752625 2224.790771,783.230835 2225.482178,784.728455 
	C2227.120850,788.278320 2223.996582,789.911255 2220.684570,791.667847 
	C2212.468262,793.354919 2204.888184,794.418823 2197.335693,791.944763 
	C2195.134277,791.223633 2192.632324,790.697693 2190.980225,789.262512 
	C2189.792969,788.231079 2188.976074,785.538757 2189.492676,784.140747 
	C2189.970703,782.846069 2192.463623,781.523926 2194.024902,781.574890 
	C2196.603271,781.659241 2199.152344,783.456543 2201.702393,783.430115 
	C2207.266602,783.372253 2212.823730,782.621521 2219.189453,781.982483 
z"/>
<path fill="#0F0A8A" opacity="1.000000" stroke="none" 
	d="
M2219.278809,818.233887 
	C2221.988770,819.155396 2223.790527,820.359680 2226.805664,822.375061 
	C2223.834961,824.594849 2221.671631,826.211182 2218.853027,827.909912 
	C2211.588379,827.793396 2204.971680,827.714783 2198.373779,827.320557 
	C2196.445312,827.205383 2194.067627,826.705017 2192.797363,825.460754 
	C2191.171387,823.868103 2189.330322,821.183960 2189.604736,819.258057 
	C2190.056396,816.085205 2192.996582,815.835510 2195.937988,816.859741 
	C2203.251709,819.406250 2210.670166,820.996399 2219.278809,818.233887 
z"/>
<path fill="#15128D" opacity="1.000000" stroke="none" 
	d="
M2308.247803,972.322998 
	C2310.983398,967.309753 2314.054688,966.744080 2317.772461,971.453857 
	C2316.833252,981.924622 2312.344482,990.240967 2305.645996,997.428223 
	C2303.519287,999.710266 2300.831543,1001.549988 2297.904785,998.907166 
	C2295.014404,996.296936 2296.315674,993.641785 2298.606934,991.186768 
	C2303.428223,986.020569 2307.074951,980.194641 2308.247803,972.322998 
z"/>
<path fill="#15128D" opacity="1.000000" stroke="none" 
	d="
M2219.336426,946.196777 
	C2224.544922,948.754883 2225.415039,951.830750 2220.558594,955.704468 
	C2213.058594,955.457886 2206.089844,955.298035 2199.275635,954.188965 
	C2196.211182,953.690308 2193.066650,951.720093 2190.729492,949.576660 
	C2189.614258,948.553955 2189.656494,945.280701 2190.415283,943.580688 
	C2190.857178,942.590759 2193.912354,942.045105 2195.516357,942.434204 
	C2199.945801,943.508850 2204.149902,945.584290 2208.600586,946.478210 
	C2211.744141,947.109680 2215.145020,946.459595 2219.336426,946.196777 
z"/>
<path fill="#0F0A8A" opacity="1.000000" stroke="none" 
	d="
M2267.841309,972.761780 
	C2269.375488,970.125000 2270.836426,968.202087 2272.297363,966.279236 
	C2273.927734,967.611511 2275.557617,968.943726 2277.471680,970.863281 
	C2276.388916,975.862610 2275.437500,980.464966 2273.528809,984.628601 
	C2271.904785,988.171204 2269.438477,991.434326 2266.862549,994.402649 
	C2264.498047,997.127197 2261.151855,1000.267639 2257.590088,997.062378 
	C2253.527832,993.406860 2257.998291,991.078491 2259.921387,988.153198 
	C2262.956543,983.536316 2265.193604,978.395020 2267.841309,972.761780 
z"/>
<path fill="#15128D" opacity="1.000000" stroke="none" 
	d="
M2374.385010,972.310852 
	C2374.714844,969.158630 2375.335449,966.821228 2376.636475,961.921326 
	C2380.110107,966.107239 2382.001465,968.386353 2383.982422,971.353027 
	C2384.379150,979.128906 2383.008789,985.814087 2379.002197,991.763611 
	C2377.148926,994.515686 2374.934570,997.729126 2371.088135,995.466858 
	C2367.187012,993.172180 2369.286621,990.286316 2370.715332,987.058228 
	C2372.650146,982.686218 2373.410889,977.794434 2374.385010,972.310852 
z"/>
<path fill="#15128D" opacity="1.000000" stroke="none" 
	d="
M2341.104004,972.364563 
	C2345.288330,966.898132 2345.848633,966.864258 2350.108887,971.675903 
	C2349.947266,981.013916 2346.280518,988.331970 2341.064941,995.007263 
	C2339.314209,997.248047 2337.250244,998.939941 2334.322998,996.954407 
	C2331.008789,994.705994 2332.068604,992.227722 2333.654053,989.243164 
	C2336.417236,984.041382 2338.640137,978.552612 2341.104004,972.364563 
z"/>
<path fill="#01018F" opacity="1.000000" stroke="none" 
	d="
M2395.984375,758.536743 
	C2395.984375,758.536804 2396.933105,758.325195 2397.398438,758.185608 
	C2398.576660,758.356812 2399.289307,758.667664 2399.766602,759.553162 
	C2396.165527,763.402771 2392.800293,766.677734 2388.725830,769.985107 
	C2388.016602,770.017456 2387.941406,769.951294 2388.022461,769.292114 
	C2390.730225,765.267517 2393.357178,761.902161 2395.984375,758.536743 
z"/>
<path fill="#15128D" opacity="1.000000" stroke="none" 
	d="
M2220.555908,964.846985 
	C2220.752197,964.197083 2221.480225,964.223755 2221.799316,964.875549 
	C2222.659180,966.886108 2223.199463,968.244873 2223.739990,969.603638 
	C2223.739990,969.603638 2223.804199,970.330688 2223.781738,970.695374 
	C2215.839111,973.353210 2221.720703,967.212036 2220.555908,964.846985 
z"/>
<path fill="#15128D" opacity="1.000000" stroke="none" 
	d="
M2221.744141,757.756348 
	C2222.416260,757.874451 2222.613525,758.158569 2222.437012,758.926636 
	C2222.247559,761.040955 2222.234863,762.387146 2222.222168,763.733337 
	C2222.222168,763.733337 2221.487549,763.835571 2221.116699,763.835083 
	C2220.854736,761.769104 2220.963379,759.703674 2221.744141,757.756348 
z"/>
<path fill="#FCFCFE" opacity="1.000000" stroke="none" 
	d="
M2873.897461,919.734619 
	C2872.129395,910.135132 2869.737305,901.385742 2869.060791,892.505676 
	C2867.011230,865.594788 2866.325439,838.631531 2874.034424,812.347839 
	C2875.969971,805.747925 2878.790527,799.098816 2882.613037,793.420776 
	C2892.674316,778.475952 2911.214355,777.891541 2921.952393,792.446167 
	C2926.556885,798.687195 2929.913574,806.345276 2931.980469,813.869568 
	C2938.299805,836.873657 2938.997070,860.547729 2936.942871,884.134399 
	C2935.769531,897.608704 2932.939453,911.016602 2929.809570,924.206116 
	C2928.480469,929.806763 2925.160889,935.312561 2921.547119,939.921631 
	C2911.319092,952.966797 2893.974854,953.072327 2883.967285,939.895386 
	C2879.648682,934.209717 2877.300781,927.027344 2873.897461,919.734619 
z"/>
<path fill="#000073" opacity="1.000000" stroke="none" 
	d="
M2340.117676,828.039124 
	C2340.096436,850.073181 2340.075195,872.107239 2339.514160,895.110474 
	C2338.649414,897.392517 2338.324707,898.705444 2338.000000,900.018372 
	C2319.281738,900.027039 2300.563477,900.035645 2280.904785,900.042542 
	C2279.939453,877.321289 2279.914551,854.601868 2280.329102,830.737000 
	C2281.177002,829.045837 2281.585449,828.500061 2282.932373,827.950623 
	C2302.573975,827.928162 2321.277100,827.909424 2340.001465,827.940125 
	C2340.022217,827.989563 2340.117676,828.039124 2340.117676,828.039124 
M2296.422363,877.870728 
	C2297.826904,879.127808 2299.172119,881.386108 2300.645996,881.473328 
	C2308.133301,881.916382 2315.718262,882.864319 2323.288818,880.736267 
	C2323.288818,869.877625 2323.288818,859.472168 2323.288818,848.751343 
	C2314.086426,848.751343 2305.663330,848.751343 2296.164062,848.751343 
	C2296.164062,858.315796 2296.164062,867.192688 2296.422363,877.870728 
z"/>
<path fill="#01018F" opacity="1.000000" stroke="none" 
	d="
M2224.156982,969.104248 
	C2223.199463,968.244873 2222.659180,966.886108 2222.158936,964.935303 
	C2225.848389,960.274048 2229.348633,956.056641 2233.195801,952.184143 
	C2236.107178,949.253662 2239.461670,946.763306 2243.315674,944.035522 
	C2239.140869,950.522949 2234.318848,957.089844 2229.366699,963.557251 
	C2227.964111,965.388977 2226.182129,966.930237 2224.156982,969.104248 
z"/>
<path fill="#01018F" opacity="1.000000" stroke="none" 
	d="
M2367.972656,932.716675 
	C2372.442139,935.304871 2377.335205,938.262207 2378.023926,945.289612 
	C2373.560791,942.696716 2368.665039,939.740906 2367.972656,932.716675 
z"/>
<path fill="#01018F" opacity="1.000000" stroke="none" 
	d="
M2254.609863,931.728149 
	C2253.327148,925.182068 2258.993164,922.484619 2263.393066,918.276367 
	C2264.673096,924.823303 2259.005371,927.516724 2254.609863,931.728149 
z"/>
<path fill="#01018F" opacity="1.000000" stroke="none" 
	d="
M2338.294922,900.612427 
	C2338.324707,898.705444 2338.649414,897.392517 2339.504150,896.048828 
	C2342.650635,899.566162 2345.267578,903.114197 2347.945312,907.337097 
	C2344.867676,905.743469 2341.728760,903.475037 2338.294922,900.612427 
z"/>
<path fill="#01018F" opacity="1.000000" stroke="none" 
	d="
M2378.051758,946.672424 
	C2383.797852,947.168823 2387.213379,950.624573 2388.022461,957.279175 
	C2384.707764,954.458801 2381.411377,950.905273 2378.051758,946.672424 
z"/>
<path fill="#01018F" opacity="1.000000" stroke="none" 
	d="
M2388.052246,958.669006 
	C2393.641113,959.018738 2396.897705,962.418213 2397.895508,968.693054 
	C2394.611572,966.024231 2391.363525,962.683960 2388.052246,958.669006 
z"/>
<path fill="#01018F" opacity="1.000000" stroke="none" 
	d="
M2264.706543,917.964905 
	C2266.931885,914.189392 2269.864014,910.368225 2273.403320,906.269043 
	C2274.408691,912.319763 2270.425537,915.490356 2264.706543,917.964905 
z"/>
<path fill="#01018F" opacity="1.000000" stroke="none" 
	d="
M2244.601562,943.734253 
	C2243.601807,937.686218 2247.564697,934.499512 2253.304688,932.038818 
	C2251.077393,935.814148 2248.142578,939.634277 2244.601562,943.734253 
z"/>
<path fill="#01018F" opacity="1.000000" stroke="none" 
	d="
M2357.972656,920.723022 
	C2361.287598,923.543457 2364.584961,927.096924 2367.942383,931.330078 
	C2362.213379,930.814636 2358.778076,927.378967 2357.972656,920.723022 
z"/>
<path fill="#01018F" opacity="1.000000" stroke="none" 
	d="
M2347.972168,908.722778 
	C2351.287598,911.543823 2354.584961,915.097961 2357.944336,919.331909 
	C2352.199463,918.831726 2348.785645,915.373352 2347.972168,908.722778 
z"/>
<path fill="#01018F" opacity="1.000000" stroke="none" 
	d="
M2274.681641,905.970947 
	C2275.541748,904.045654 2277.088379,902.079102 2279.317383,900.061401 
	C2278.456299,901.983337 2276.912354,903.956421 2274.681641,905.970947 
z"/>
<path fill="#01018F" opacity="1.000000" stroke="none" 
	d="
M2277.900879,826.097290 
	C2275.941895,825.067993 2273.468750,824.486694 2272.114258,822.931030 
	C2266.593262,816.590942 2261.415527,809.952454 2256.057617,802.708862 
	C2256.004395,801.993652 2256.063721,801.938538 2256.750977,802.005859 
	C2266.729492,807.936401 2272.422119,816.913147 2278.030518,825.968384 
	C2277.987305,826.011353 2277.900879,826.097290 2277.900879,826.097290 
z"/>
<path fill="#01018F" opacity="1.000000" stroke="none" 
	d="
M2255.973145,802.020020 
	C2251.616943,798.659607 2246.701904,795.744934 2245.957031,788.767822 
	C2245.985352,788.016174 2246.058594,787.951599 2246.659424,788.255554 
	C2251.018555,792.477051 2256.598389,795.196228 2256.063721,801.938538 
	C2256.063721,801.938538 2256.004395,801.993652 2255.973145,802.020020 
z"/>
<path fill="#01018F" opacity="1.000000" stroke="none" 
	d="
M2245.950195,788.050110 
	C2240.290039,786.742432 2236.796631,783.383118 2235.958252,776.776489 
	C2235.985596,776.016296 2236.058594,775.951843 2236.649902,776.251404 
	C2240.180420,780.351196 2243.119629,784.151367 2246.058594,787.951599 
	C2246.058594,787.951599 2245.985352,788.016174 2245.950195,788.050110 
z"/>
<path fill="#01018F" opacity="1.000000" stroke="none" 
	d="
M2235.950439,776.049866 
	C2230.288818,774.737122 2226.786377,771.383911 2225.963867,764.767700 
	C2225.990723,764.011963 2226.048828,763.962891 2226.642090,764.259399 
	C2230.176514,768.354492 2233.117676,772.153198 2236.058594,775.951843 
	C2236.058594,775.951843 2235.985596,776.016296 2235.950439,776.049866 
z"/>
<path fill="#01018F" opacity="1.000000" stroke="none" 
	d="
M2222.833252,763.852051 
	C2222.234863,762.387146 2222.247559,761.040955 2222.524658,759.075806 
	C2222.789062,758.456848 2223.366211,758.433105 2223.960938,758.976440 
	C2225.053223,761.000732 2225.551025,762.481812 2226.048828,763.962891 
	C2226.048828,763.962891 2225.990723,764.011963 2225.961670,764.040161 
	C2225.103271,764.035828 2224.273682,764.003296 2222.833252,763.852051 
z"/>
<path fill="#01018F" opacity="1.000000" stroke="none" 
	d="
M2281.994141,827.954346 
	C2281.585449,828.500061 2281.177002,829.045837 2280.290527,829.801270 
	C2279.203857,829.090027 2278.595215,828.169128 2277.943848,826.672791 
	C2277.900879,826.097290 2277.987305,826.011353 2278.610596,826.031006 
	C2280.154053,826.685242 2281.073975,827.319763 2281.994141,827.954346 
z"/>
<path fill="#01018F" opacity="1.000000" stroke="none" 
	d="
M2368.067871,796.052490 
	C2362.455566,805.101746 2356.712402,814.038086 2346.732910,819.976562 
	C2346.012207,820.012878 2345.951172,819.962036 2346.036621,819.274414 
	C2351.425781,812.052490 2356.602051,805.406860 2362.125488,799.063538 
	C2363.476807,797.511658 2365.964355,796.949280 2367.963135,795.962830 
	C2367.996826,795.993774 2368.067871,796.052490 2368.067871,796.052490 
z"/>
<path fill="#01018F" opacity="1.000000" stroke="none" 
	d="
M2388.053223,770.051575 
	C2388.593018,776.815369 2382.997070,779.515747 2378.630859,783.723267 
	C2377.998047,784.000183 2377.936279,783.938477 2377.942383,783.223328 
	C2378.673584,776.248901 2383.621338,773.349854 2387.941406,769.951294 
	C2387.941406,769.951294 2388.016602,770.017456 2388.053223,770.051575 
z"/>
<path fill="#01018F" opacity="1.000000" stroke="none" 
	d="
M2378.029297,784.031128 
	C2375.122559,787.857483 2372.184570,791.652954 2368.657227,795.750427 
	C2368.067871,796.052490 2367.996826,795.993774 2367.972656,795.239380 
	C2368.797607,788.620850 2372.259033,785.230347 2377.936279,783.938477 
	C2377.936279,783.938477 2377.998047,784.000183 2378.029297,784.031128 
z"/>
<path fill="#01018F" opacity="1.000000" stroke="none" 
	d="
M2346.041992,820.040527 
	C2346.157959,823.607422 2345.593750,826.766846 2340.815674,827.956055 
	C2340.117676,828.039124 2340.022217,827.989563 2340.055176,827.293518 
	C2342.042236,824.385681 2343.996826,822.173889 2345.951172,819.962036 
	C2345.951172,819.962036 2346.012207,820.012878 2346.041992,820.040527 
z"/>
<path fill="#0404B6" opacity="1.000000" stroke="none" 
	d="
M2346.036621,819.274414 
	C2343.996826,822.173889 2342.042236,824.385681 2340.034180,827.244080 
	C2321.277100,827.909424 2302.573975,827.928162 2282.932373,827.950684 
	C2281.073975,827.319763 2280.154053,826.685242 2278.653809,825.988037 
	C2272.422119,816.913147 2266.729492,807.936401 2256.750977,802.005859 
	C2256.598389,795.196228 2251.018555,792.477051 2246.659424,788.255554 
	C2243.119629,784.151367 2240.180420,780.351196 2236.649902,776.251404 
	C2233.117676,772.153198 2230.176514,768.354492 2226.642090,764.259399 
	C2225.551025,762.481812 2225.053223,761.000732 2224.247314,759.012329 
	C2230.513428,758.338135 2237.110107,757.778931 2243.652832,758.156616 
	C2247.384033,758.372009 2251.027100,760.115967 2253.094238,760.708557 
	C2259.747559,759.660522 2264.992920,758.490234 2270.296387,758.090881 
	C2276.192627,757.646851 2282.141602,757.905396 2288.976074,757.664062 
	C2291.647705,758.226074 2293.428711,759.673157 2295.171875,759.628784 
	C2309.468506,759.264465 2323.758301,758.622681 2338.976807,758.082397 
	C2342.605957,762.991211 2343.415039,763.128357 2347.934570,758.753418 
	C2360.297119,758.652771 2372.495605,759.370056 2384.704590,759.719238 
	C2387.919434,759.811096 2391.166748,758.765015 2395.191895,758.389160 
	C2393.357178,761.902161 2390.730225,765.267517 2388.022461,769.292114 
	C2383.621338,773.349854 2378.673584,776.248901 2377.942383,783.223328 
	C2372.259033,785.230347 2368.797607,788.620850 2367.938965,795.208374 
	C2365.964355,796.949280 2363.476807,797.511658 2362.125488,799.063538 
	C2356.602051,805.406860 2351.425781,812.052490 2346.036621,819.274414 
z"/>
<path fill="#0404B3" opacity="1.000000" stroke="none" 
	d="
M2296.293213,876.970154 
	C2296.164062,867.192688 2296.164062,858.315796 2296.164062,848.751343 
	C2305.663330,848.751343 2314.086426,848.751343 2323.288818,848.751343 
	C2323.288818,859.472168 2323.288818,869.877625 2323.288818,880.736267 
	C2315.718262,882.864319 2308.133301,881.916382 2300.645996,881.473328 
	C2299.172119,881.386108 2297.826904,879.127808 2296.293213,876.970154 
z"/>
</svg>